STARTFONT 2.3
FONT -FontForge-Syncopate-Book-R-Normal--18-180-72-72-P-135-ISO10646-1
SIZE 18 72 72  2
FONTBOUNDINGBOX 34 20 -4 -4
COMMENT "Generated by fontforge, http://fontforge.sourceforge.net"
COMMENT "Copyright (c) 2010 by Brian J. Bonislawsky DBA Astigmatic (AOETI). All rights reserved. Available under the Apache 2.0 licence.http://www.apache.org/licenses/LICENSE-2.0.html"
STARTPROPERTIES 40
FOUNDRY "FontForge"
FAMILY_NAME "Syncopate"
WEIGHT_NAME "Book"
SLANT "R"
SETWIDTH_NAME "Normal"
ADD_STYLE_NAME ""
PIXEL_SIZE 18
POINT_SIZE 180
RESOLUTION_X 72
RESOLUTION_Y 72
SPACING "P"
AVERAGE_WIDTH 135
CHARSET_REGISTRY "ISO10646"
CHARSET_ENCODING "1"
FONTNAME_REGISTRY ""
CHARSET_COLLECTIONS "ISO8859-2 ISO8859-9 ISO8859-4 ISO10646-1"
BITS_PER_PIXEL 2
FONT_NAME "Syncopate-Regular"
FACE_NAME "Syncopate Regular"
COPYRIGHT "Copyright (c) 2010 by Brian J. Bonislawsky DBA Astigmatic (AOETI). All rights reserved. Available under the Apache 2.0 licence.http://www.apache.org/licenses/LICENSE-2.0.html"
FONT_VERSION "001.001"
FONT_ASCENT 14
FONT_DESCENT 4
UNDERLINE_POSITION -2
UNDERLINE_THICKNESS 1
X_HEIGHT 11
CAP_HEIGHT 11
RAW_ASCENT 799
RAW_DESCENT 200
NORM_SPACE 7
RELATIVE_WEIGHT 40
RELATIVE_SETWIDTH 70
SUPERSCRIPT_X 0
SUPERSCRIPT_Y 5
SUPERSCRIPT_SIZE 3
SUBSCRIPT_X 0
SUBSCRIPT_Y 5
SUBSCRIPT_SIZE 3
AVG_LOWERCASE_WIDTH 154
AVG_UPPERCASE_WIDTH 149
ENDPROPERTIES
CHARS 370
STARTCHAR space
ENCODING 32
SWIDTH 375 0
DWIDTH 7 0
BBX 1 1 0 0
BITMAP
00
ENDCHAR
STARTCHAR exclam
ENCODING 33
SWIDTH 274 0
DWIDTH 5 0
BBX 2 12 1 0
BITMAP
70
70
30
30
30
30
30
20
00
00
70
70
ENDCHAR
STARTCHAR quotedbl
ENCODING 34
SWIDTH 290 0
DWIDTH 5 0
BBX 5 4 0 8
BITMAP
7280
6280
6240
6240
ENDCHAR
STARTCHAR numbersign
ENCODING 35
SWIDTH 701 0
DWIDTH 13 0
BBX 11 12 1 0
BITMAP
018090
0140C0
024180
3FFFF8
020240
060200
050300
090200
FFFFE0
080900
180800
240800
ENDCHAR
STARTCHAR dollar
ENCODING 36
SWIDTH 767 0
DWIDTH 14 0
BBX 12 14 1 -1
BITMAP
002400
06FF90
392464
602400
602400
292400
06F900
002AD0
002428
00240D
00240D
642468
1BFF90
002400
ENDCHAR
STARTCHAR percent
ENCODING 37
SWIDTH 992 0
DWIDTH 18 0
BBX 15 12 1 0
BITMAP
2F900280
A0740600
C0181C00
C0183400
A0749000
2F928000
00061BE0
001C7428
0034A00C
0090A00C
02807428
06001BE0
ENDCHAR
STARTCHAR ampersand
ENCODING 38
SWIDTH 926 0
DWIDTH 17 0
BBX 14 12 1 0
BITMAP
01BF8000
0740A000
09006000
0A018000
035A0000
02E00000
1D280060
300A0090
A001D0C0
60002A40
39005F40
06FF90A0
ENDCHAR
STARTCHAR quotesingle
ENCODING 39
SWIDTH 140 0
DWIDTH 3 0
BBX 2 4 0 8
BITMAP
70
60
60
60
ENDCHAR
STARTCHAR parenleft
ENCODING 40
SWIDTH 420 0
DWIDTH 8 0
BBX 5 14 1 -1
BITMAP
0140
0600
1C00
2400
3000
6000
A000
A000
6000
3000
2400
1C00
0A00
0240
ENDCHAR
STARTCHAR parenright
ENCODING 41
SWIDTH 420 0
DWIDTH 8 0
BBX 4 14 2 -1
BITMAP
80
70
28
0D
06
07
03
03
07
06
0D
28
70
90
ENDCHAR
STARTCHAR asterisk
ENCODING 42
SWIDTH 503 0
DWIDTH 9 0
BBX 7 7 1 5
BITMAP
0300
5314
6AA4
0B80
6AA4
5304
0300
ENDCHAR
STARTCHAR plus
ENCODING 43
SWIDTH 634 0
DWIDTH 11 0
BBX 9 9 1 2
BITMAP
009000
009000
009000
009000
7FFFC0
009000
009000
009000
009000
ENDCHAR
STARTCHAR comma
ENCODING 44
SWIDTH 185 0
DWIDTH 3 0
BBX 3 4 0 -2
BITMAP
34
34
70
60
ENDCHAR
STARTCHAR hyphen
ENCODING 45
SWIDTH 540 0
DWIDTH 10 0
BBX 8 1 1 6
BITMAP
BFFD
ENDCHAR
STARTCHAR period
ENCODING 46
SWIDTH 185 0
DWIDTH 3 0
BBX 2 2 1 0
BITMAP
D0
D0
ENDCHAR
STARTCHAR slash
ENCODING 47
SWIDTH 500 0
DWIDTH 9 0
BBX 7 13 1 0
BITMAP
0018
0024
0070
0090
00C0
0240
0300
0600
0C00
1800
3400
6000
9000
ENDCHAR
STARTCHAR zero
ENCODING 48
SWIDTH 833 0
DWIDTH 15 0
BBX 13 12 1 0
BITMAP
01BF9000
0A406800
28000A00
70000340
90000180
D0000180
D0000180
90000180
70000340
28000A00
0A406800
01BF9000
ENDCHAR
STARTCHAR one
ENCODING 49
SWIDTH 339 0
DWIDTH 6 0
BBX 4 12 0 0
BITMAP
6F
97
03
03
03
03
03
03
03
03
03
03
ENDCHAR
STARTCHAR two
ENCODING 50
SWIDTH 728 0
DWIDTH 13 0
BBX 12 12 0 0
BITMAP
1AFE90
250068
000009
000006
00000A
00001C
000074
000280
001D00
01A000
1A4000
7FFFFF
ENDCHAR
STARTCHAR three
ENCODING 51
SWIDTH 726 0
DWIDTH 13 0
BBX 12 12 0 0
BITMAP
1AFF90
250068
00000D
00000D
000164
00BF90
000168
00000A
000006
00000A
650068
1BFF90
ENDCHAR
STARTCHAR four
ENCODING 52
SWIDTH 769 0
DWIDTH 14 0
BBX 14 12 0 0
BITMAP
0001F400
00077400
000D3400
00343400
00D03400
03403400
09003400
24003400
7FFFFFD0
00003400
00003400
00003400
ENDCHAR
STARTCHAR five
ENCODING 53
SWIDTH 738 0
DWIDTH 13 0
BBX 11 12 1 0
BITMAP
7FFFF4
600000
600000
600000
7FFE40
0001B4
00001C
00000C
00000C
00001C
9401B4
6BFE40
ENDCHAR
STARTCHAR six
ENCODING 54
SWIDTH 772 0
DWIDTH 14 0
BBX 12 12 1 0
BITMAP
01BFA4
0A4018
280000
600000
91BFA0
AE406D
B40007
900003
600003
340006
1E406C
01BF90
ENDCHAR
STARTCHAR seven
ENCODING 55
SWIDTH 669 0
DWIDTH 12 0
BBX 12 12 0 0
BITMAP
FFFFFD
00001C
000034
0000A0
0001C0
000340
000A00
000C00
002800
007000
00D000
028000
ENDCHAR
STARTCHAR eight
ENCODING 56
SWIDTH 793 0
DWIDTH 14 0
BBX 13 12 1 0
BITMAP
06FF9000
2D006800
30000900
34000D00
1E41B400
02FF8000
1E41B800
A0000B00
D0000340
D0000300
79006D00
06FFA000
ENDCHAR
STARTCHAR nine
ENCODING 57
SWIDTH 776 0
DWIDTH 14 0
BBX 12 12 1 0
BITMAP
06FE40
3901B4
90001C
C00009
C0000A
D0001E
7901AA
0AFE4A
00000D
000028
2401A0
1BFE40
ENDCHAR
STARTCHAR colon
ENCODING 58
SWIDTH 245 0
DWIDTH 4 0
BBX 2 8 1 0
BITMAP
B0
B0
00
00
00
00
B0
B0
ENDCHAR
STARTCHAR semicolon
ENCODING 59
SWIDTH 234 0
DWIDTH 4 0
BBX 2 10 1 -2
BITMAP
B0
B0
00
00
00
00
A0
A0
D0
C0
ENDCHAR
STARTCHAR less
ENCODING 60
SWIDTH 634 0
DWIDTH 11 0
BBX 9 9 1 2
BITMAP
000180
001E40
01E400
2E0000
B40000
2E0000
01E400
001E40
000180
ENDCHAR
STARTCHAR equal
ENCODING 61
SWIDTH 634 0
DWIDTH 11 0
BBX 9 4 1 4
BITMAP
7FFFC0
000000
000000
7FFFC0
ENDCHAR
STARTCHAR greater
ENCODING 62
SWIDTH 634 0
DWIDTH 11 0
BBX 9 9 1 2
BITMAP
600000
1E0000
01E400
001E40
0002C0
001E40
01E400
1E0000
600000
ENDCHAR
STARTCHAR question
ENCODING 63
SWIDTH 568 0
DWIDTH 10 0
BBX 8 12 1 0
BITMAP
6FE4
901D
0007
0007
001D
05A4
1E40
1C00
0000
0000
1C00
1C00
ENDCHAR
STARTCHAR at
ENCODING 64
SWIDTH 1016 0
DWIDTH 18 0
BBX 16 13 1 0
BITMAP
001BFA40
01E405E0
0A000028
28000009
300BFA06
60281907
A0600907
A0A00C0A
60742D2C
341FD7E0
1D000000
07900680
006FF900
ENDCHAR
STARTCHAR A
ENCODING 65
SWIDTH 812 0
DWIDTH 15 0
BBX 14 12 0 0
BITMAP
000B4000
000E8000
0028D000
00706000
00A03400
01C01C00
02800D00
07000700
0BFFFF40
1C0001C0
340000A0
60000070
ENDCHAR
STARTCHAR B
ENCODING 66
SWIDTH 836 0
DWIDTH 15 0
BBX 12 12 2 0
BITMAP
FFFFE0
C00068
C0000C
C0000C
C00068
FFFFE0
C0001D
C00006
C00007
C00007
C0001D
FFFFE4
ENDCHAR
STARTCHAR C
ENCODING 67
SWIDTH 869 0
DWIDTH 16 0
BBX 14 12 1 0
BITMAP
006FE800
07900680
28000050
70000000
A0000000
90000000
90000000
A0000000
70000000
28000050
0B900680
006FE800
ENDCHAR
STARTCHAR D
ENCODING 68
SWIDTH 910 0
DWIDTH 16 0
BBX 14 12 2 0
BITMAP
FFFFA000
C0006D00
C0000740
C0000180
C00000C0
C00000D0
C00000C0
C00000C0
C0000180
C0000740
C0006D00
FFFFA000
ENDCHAR
STARTCHAR E
ENCODING 69
SWIDTH 754 0
DWIDTH 14 0
BBX 11 12 2 0
BITMAP
FFFFF0
D00000
D00000
D00000
D00000
FFFFE0
D00000
D00000
D00000
D00000
D00000
FFFFF4
ENDCHAR
STARTCHAR F
ENCODING 70
SWIDTH 687 0
DWIDTH 12 0
BBX 10 12 2 0
BITMAP
FFFFE0
C00000
C00000
C00000
C00000
FFFFC0
C00000
C00000
C00000
C00000
C00000
C00000
ENDCHAR
STARTCHAR G
ENCODING 71
SWIDTH 910 0
DWIDTH 16 0
BBX 14 12 1 0
BITMAP
006FF900
07900680
28000050
70000000
A0000000
90000000
9000FFF0
A0000070
70000070
2C000070
0B9001B0
006FFE50
ENDCHAR
STARTCHAR H
ENCODING 72
SWIDTH 949 0
DWIDTH 17 0
BBX 13 12 2 0
BITMAP
C00000C0
C00000C0
C00000C0
C00000C0
C00000C0
FFFFFFC0
C00000C0
C00000C0
C00000C0
C00000C0
C00000C0
C00000C0
ENDCHAR
STARTCHAR I
ENCODING 73
SWIDTH 287 0
DWIDTH 5 0
BBX 1 12 2 0
BITMAP
C0
C0
C0
C0
C0
C0
C0
C0
C0
C0
C0
C0
ENDCHAR
STARTCHAR J
ENCODING 74
SWIDTH 590 0
DWIDTH 11 0
BBX 9 12 0 0
BITMAP
000180
000180
000180
000180
000180
000180
000180
000180
000180
000240
901A00
6FE400
ENDCHAR
STARTCHAR K
ENCODING 75
SWIDTH 806 0
DWIDTH 15 0
BBX 12 12 2 0
BITMAP
C00028
C001D0
C00A00
C07400
C68000
ED0000
DA0000
C1D000
C02800
C00740
C000A0
C0001D
ENDCHAR
STARTCHAR L
ENCODING 76
SWIDTH 701 0
DWIDTH 13 0
BBX 10 12 2 0
BITMAP
C00000
C00000
C00000
C00000
C00000
C00000
C00000
C00000
C00000
C00000
C00000
FFFFF0
ENDCHAR
STARTCHAR M
ENCODING 77
SWIDTH 1139 0
DWIDTH 21 0
BBX 17 12 2 0
BITMAP
E000000340
F400000B40
D800001A40
C900003640
C30000A240
C18001C240
C090034240
C0300A0240
C0181C0240
C009240240
C007A00240
C002C00240
ENDCHAR
STARTCHAR N
ENCODING 78
SWIDTH 936 0
DWIDTH 17 0
BBX 13 12 2 0
BITMAP
E0000180
F8000180
DA000180
C2800180
C0A00180
C0280180
C00A0180
C0028180
C000A180
C0002980
C0000A80
C0000280
ENDCHAR
STARTCHAR O
ENCODING 79
SWIDTH 983 0
DWIDTH 18 0
BBX 16 12 1 0
BITMAP
006FF900
0B9006D0
28000074
7000001C
A0000009
90000009
90000009
A0000009
7000001C
28000074
0B9006D0
01AFF900
ENDCHAR
STARTCHAR P
ENCODING 80
SWIDTH 818 0
DWIDTH 15 0
BBX 12 12 2 0
BITMAP
FFFFE0
C0005D
C0000A
C00006
C0000A
C0001D
FFFFE0
C00000
C00000
C00000
C00000
C00000
ENDCHAR
STARTCHAR Q
ENCODING 81
SWIDTH 983 0
DWIDTH 18 0
BBX 17 12 1 0
BITMAP
006FF90000
0B9006D000
2800007400
7000001C00
A000000900
9000000900
9000000900
A000000D00
7000001C00
2800297400
0B901BF500
01AFF91B40
ENDCHAR
STARTCHAR R
ENCODING 82
SWIDTH 833 0
DWIDTH 15 0
BBX 12 12 2 0
BITMAP
FFFF90
C00068
C0000C
C0000D
C0000C
C00068
FFFF90
C00280
C000A0
C00034
C0001D
C00007
ENDCHAR
STARTCHAR S
ENCODING 83
SWIDTH 787 0
DWIDTH 14 0
BBX 12 12 1 0
BITMAP
06FF90
390068
600000
600000
290000
06E900
0016E0
00001D
000006
00000A
65006C
1AFF90
ENDCHAR
STARTCHAR T
ENCODING 84
SWIDTH 708 0
DWIDTH 13 0
BBX 13 12 0 0
BITMAP
BFFFFF40
000C0000
000C0000
000C0000
000C0000
000C0000
000C0000
000C0000
000C0000
000C0000
000C0000
000C0000
ENDCHAR
STARTCHAR U
ENCODING 85
SWIDTH 891 0
DWIDTH 16 0
BBX 12 12 2 0
BITMAP
C00003
C00003
C00003
C00003
C00003
C00003
C00003
C00003
C00003
A0000A
39006C
06FF90
ENDCHAR
STARTCHAR V
ENCODING 86
SWIDTH 817 0
DWIDTH 15 0
BBX 14 12 0 0
BITMAP
70000070
24000090
1C0001C0
09000240
07000700
02400900
01C01C00
00902400
00707000
00249000
001DC000
000B4000
ENDCHAR
STARTCHAR W
ENCODING 87
SWIDTH 1266 0
DWIDTH 23 0
BBX 21 12 1 0
BITMAP
C0002D0001C0
90003A000280
700073000300
340092400A00
2800C1C00D00
0C0180D01C00
090340A02400
070700303000
034A0024A000
018C0018D000
00E8000EC000
00B4000B4000
ENDCHAR
STARTCHAR X
ENCODING 88
SWIDTH 821 0
DWIDTH 15 0
BBX 13 12 1 0
BITMAP
70000740
1C001D00
0A003400
0280D000
00A34000
002D0000
002A0000
00928000
0240A000
09002800
28000A00
A0000280
ENDCHAR
STARTCHAR Y
ENCODING 89
SWIDTH 763 0
DWIDTH 14 0
BBX 12 12 1 0
BITMAP
D0000A
740018
1C0070
0600D0
028340
009A00
003800
002400
002400
002400
002400
002400
ENDCHAR
STARTCHAR Z
ENCODING 90
SWIDTH 728 0
DWIDTH 13 0
BBX 11 12 1 0
BITMAP
7FFFF8
000070
0001C0
000740
000D00
002400
00A000
028000
070000
1C0000
740000
BFFFFC
ENDCHAR
STARTCHAR bracketleft
ENCODING 91
SWIDTH 409 0
DWIDTH 7 0
BBX 5 14 2 -1
BITMAP
BF40
9000
9000
9000
9000
9000
9000
9000
9000
9000
9000
9000
9000
BF40
ENDCHAR
STARTCHAR backslash
ENCODING 92
SWIDTH 500 0
DWIDTH 9 0
BBX 7 13 1 0
BITMAP
9000
6000
3400
1800
0C00
0600
0300
0240
00C0
0090
0070
0024
0018
ENDCHAR
STARTCHAR bracketright
ENCODING 93
SWIDTH 409 0
DWIDTH 7 0
BBX 4 14 1 -1
BITMAP
FF
03
03
03
03
03
03
03
03
03
03
03
03
FF
ENDCHAR
STARTCHAR asciicircum
ENCODING 94
SWIDTH 459 0
DWIDTH 8 0
BBX 8 5 0 7
BITMAP
02C0
0660
0D34
2818
7009
ENDCHAR
STARTCHAR underscore
ENCODING 95
SWIDTH 500 0
DWIDTH 9 0
BBX 9 1 0 -2
BITMAP
FFFFC0
ENDCHAR
STARTCHAR grave
ENCODING 96
SWIDTH 527 0
DWIDTH 10 0
BBX 4 3 2 10
BITMAP
90
B8
06
ENDCHAR
STARTCHAR a
ENCODING 97
SWIDTH 888 0
DWIDTH 16 0
BBX 13 12 1 0
BITMAP
06BFE400
29001B00
00000280
000000C0
000000C0
001AAFC0
0BA540C0
740000C0
900000C0
D00001C0
79006AC0
1BFE90C0
ENDCHAR
STARTCHAR b
ENCODING 98
SWIDTH 836 0
DWIDTH 15 0
BBX 12 12 2 0
BITMAP
FFFFE0
C00068
C0000C
C0000C
C00068
FFFFE0
C0001D
C00006
C00007
C00007
C0001D
FFFFE4
ENDCHAR
STARTCHAR c
ENCODING 99
SWIDTH 869 0
DWIDTH 16 0
BBX 14 12 1 0
BITMAP
006FE800
07900680
28000050
70000000
A0000000
90000000
90000000
A0000000
70000000
28000050
0B900680
006FE800
ENDCHAR
STARTCHAR d
ENCODING 100
SWIDTH 910 0
DWIDTH 16 0
BBX 14 12 2 0
BITMAP
FFFFA000
C0006D00
C0000740
C0000180
C00000C0
C00000D0
C00000C0
C00000C0
C0000180
C0000740
C0006D00
FFFFA000
ENDCHAR
STARTCHAR e
ENCODING 101
SWIDTH 910 0
DWIDTH 16 0
BBX 15 12 1 0
BITMAP
00AFE400
0B501B40
280001D0
70000060
90000030
BFFFFFF4
90000000
A0000000
74000000
2D000000
0B900590
00AFFA40
ENDCHAR
STARTCHAR f
ENCODING 102
SWIDTH 817 0
DWIDTH 15 0
BBX 12 12 2 0
BITMAP
06FFFE
390000
900000
C00000
C00000
FFFFFD
C00000
C00000
C00000
C00000
C00000
C00000
ENDCHAR
STARTCHAR g
ENCODING 103
SWIDTH 910 0
DWIDTH 16 0
BBX 14 12 1 0
BITMAP
006FF900
07900680
28000050
70000000
A0000000
90000000
9000FFF0
A0000070
70000070
2C000070
0B9001B0
006FFE50
ENDCHAR
STARTCHAR h
ENCODING 104
SWIDTH 949 0
DWIDTH 17 0
BBX 13 12 2 0
BITMAP
C00000C0
C00000C0
C00000C0
C00000C0
C00000C0
FFFFFFC0
C00000C0
C00000C0
C00000C0
C00000C0
C00000C0
C00000C0
ENDCHAR
STARTCHAR i
ENCODING 105
SWIDTH 287 0
DWIDTH 5 0
BBX 1 12 2 0
BITMAP
C0
C0
C0
C0
C0
C0
C0
C0
C0
C0
C0
C0
ENDCHAR
STARTCHAR j
ENCODING 106
SWIDTH 590 0
DWIDTH 11 0
BBX 9 12 0 0
BITMAP
000180
000180
000180
000180
000180
000180
000180
000180
000180
000240
901A00
6FE400
ENDCHAR
STARTCHAR k
ENCODING 107
SWIDTH 867 0
DWIDTH 16 0
BBX 13 12 2 0
BITMAP
C0000A00
C0000D00
C0002800
C000A000
C01A4000
FFF80000
C01B8000
C0007400
C0001D00
C0000A00
C0000340
C0000240
ENDCHAR
STARTCHAR l
ENCODING 108
SWIDTH 709 0
DWIDTH 13 0
BBX 11 12 2 0
BITMAP
C00000
C00000
C00000
C00000
C00000
C00000
C00000
C00000
D00000
900000
740000
1BFFF8
ENDCHAR
STARTCHAR m
ENCODING 109
SWIDTH 1246 0
DWIDTH 22 0
BBX 19 12 2 0
BITMAP
C1BE01BF40
DE42CA41A0
F400B40034
D000600024
C000600024
C000600024
C000600024
C000600024
C000600024
C000600024
C000600024
C000600024
ENDCHAR
STARTCHAR n
ENCODING 110
SWIDTH 933 0
DWIDTH 17 0
BBX 13 12 2 0
BITMAP
C06FF800
C7941B00
F8000280
D0000180
C0000180
C0000180
C0000180
C0000180
C0000180
C0000180
C0000180
C0000180
ENDCHAR
STARTCHAR o
ENCODING 111
SWIDTH 983 0
DWIDTH 18 0
BBX 16 12 1 0
BITMAP
006FF900
0B9006D0
28000074
7000001C
A0000009
90000009
90000009
A0000009
7000001C
28000074
0B9006D0
01AFF900
ENDCHAR
STARTCHAR p
ENCODING 112
SWIDTH 818 0
DWIDTH 15 0
BBX 12 12 2 0
BITMAP
FFFFE0
C0005D
C0000A
C00006
C0000A
C0001D
FFFFE0
C00000
C00000
C00000
C00000
C00000
ENDCHAR
STARTCHAR q
ENCODING 113
SWIDTH 983 0
DWIDTH 18 0
BBX 17 12 1 0
BITMAP
006FF90000
0B9006D000
2800007400
7000001C00
A000000900
9000000900
9000000900
A000000900
7000001C00
2800007400
0B9006F500
01AFF95B40
ENDCHAR
STARTCHAR r
ENCODING 114
SWIDTH 609 0
DWIDTH 11 0
BBX 9 12 2 0
BITMAP
C06FC0
C79000
E80000
E00000
C00000
C00000
C00000
C00000
C00000
C00000
C00000
C00000
ENDCHAR
STARTCHAR s
ENCODING 115
SWIDTH 787 0
DWIDTH 14 0
BBX 12 12 1 0
BITMAP
06FF90
390068
600000
600000
290000
06E900
0016E0
00001D
000006
00000A
65006C
1AFF90
ENDCHAR
STARTCHAR t
ENCODING 116
SWIDTH 708 0
DWIDTH 13 0
BBX 13 12 0 0
BITMAP
BFFFFF40
000C0000
000C0000
000C0000
000C0000
000C0000
000C0000
000C0000
000C0000
000C0000
000C0000
000C0000
ENDCHAR
STARTCHAR u
ENCODING 117
SWIDTH 931 0
DWIDTH 17 0
BBX 13 12 2 0
BITMAP
C0000180
C0000180
C0000180
C0000180
C0000180
C0000180
C0000180
C0000180
C0000280
90001B80
7405A580
0BFA4180
ENDCHAR
STARTCHAR v
ENCODING 118
SWIDTH 817 0
DWIDTH 15 0
BBX 14 12 0 0
BITMAP
70000070
24000090
1C0001C0
09000240
07000700
02400900
01C01C00
00902400
00707000
00249000
001DC000
000B4000
ENDCHAR
STARTCHAR w
ENCODING 119
SWIDTH 1266 0
DWIDTH 23 0
BBX 21 12 1 0
BITMAP
C0002D0001C0
90003A000280
700073000300
340092400A00
2800C1C00D00
0C0180D01C00
090340A02400
070700303000
034A0024A000
018C0018D000
00E8000EC000
00B4000B4000
ENDCHAR
STARTCHAR x
ENCODING 120
SWIDTH 821 0
DWIDTH 15 0
BBX 13 12 1 0
BITMAP
70000740
1C001D00
0A003400
0280D000
00A34000
002D0000
002A0000
00928000
0240A000
09002800
28000A00
A0000280
ENDCHAR
STARTCHAR y
ENCODING 121
SWIDTH 911 0
DWIDTH 16 0
BBX 14 12 1 0
BITMAP
60000090
60000090
60000090
70000090
300001D0
280007D0
0E406890
01BF9090
000000D0
00000280
65006E00
1AFFA400
ENDCHAR
STARTCHAR z
ENCODING 122
SWIDTH 728 0
DWIDTH 13 0
BBX 11 12 1 0
BITMAP
7FFFF8
000070
0001C0
000740
000D00
002400
00A000
028000
070000
1C0000
740000
BFFFFC
ENDCHAR
STARTCHAR braceleft
ENCODING 123
SWIDTH 386 0
DWIDTH 7 0
BBX 6 14 0 -1
BITMAP
01F0
0700
0600
0600
0600
0A00
0D00
7800
0900
0600
0600
0600
0700
02F0
ENDCHAR
STARTCHAR bar
ENCODING 124
SWIDTH 259 0
DWIDTH 5 0
BBX 2 18 1 -4
BITMAP
70
70
70
70
70
70
70
70
70
70
70
70
70
70
70
70
70
70
ENDCHAR
STARTCHAR braceright
ENCODING 125
SWIDTH 386 0
DWIDTH 7 0
BBX 6 14 1 -1
BITMAP
F400
0C00
0900
0900
0900
0900
0600
02D0
0600
0900
0900
0900
0D00
F800
ENDCHAR
STARTCHAR asciitilde
ENCODING 126
SWIDTH 634 0
DWIDTH 11 0
BBX 9 2 1 5
BITMAP
6F9080
516F40
ENDCHAR
STARTCHAR nonbreakingspace
ENCODING 160
SWIDTH 375 0
DWIDTH 7 0
BBX 1 1 0 0
BITMAP
00
ENDCHAR
STARTCHAR exclamdown
ENCODING 161
SWIDTH 274 0
DWIDTH 5 0
BBX 2 12 1 0
BITMAP
70
70
00
00
20
30
30
30
30
30
70
70
ENDCHAR
STARTCHAR cent
ENCODING 162
SWIDTH 736 0
DWIDTH 13 0
BBX 12 14 1 -1
BITMAP
001800
01BFA4
1E5819
741800
901800
D01800
C01800
D01800
901800
741800
1E5819
02BFE4
001800
001800
ENDCHAR
STARTCHAR sterling
ENCODING 163
SWIDTH 792 0
DWIDTH 14 0
BBX 13 12 1 0
BITMAP
006FE400
01D01900
03400000
07000000
06000000
06000000
FFFFE000
06000000
06000000
09000000
1FE90640
901AF900
ENDCHAR
STARTCHAR currency
ENCODING 164
SWIDTH 560 0
DWIDTH 10 0
BBX 8 8 1 2
BITMAP
4001
7BED
282C
3009
2009
2818
7BE9
4001
ENDCHAR
STARTCHAR yen
ENCODING 165
SWIDTH 811 0
DWIDTH 15 0
BBX 12 12 1 0
BITMAP
A00007
28000D
090024
0340A0
01C180
7FE7FF
002D00
001C00
7FFFFF
001C00
001C00
001C00
ENDCHAR
STARTCHAR brokenbar
ENCODING 166
SWIDTH 259 0
DWIDTH 5 0
BBX 2 16 1 -3
BITMAP
70
70
70
70
70
70
70
00
00
70
70
70
70
70
70
70
ENDCHAR
STARTCHAR section
ENCODING 167
SWIDTH 500 0
DWIDTH 9 0
BBX 7 12 1 0
BITMAP
1FD0
7020
7000
2E00
66E0
D028
A01C
2E64
02E0
0034
5074
2FD0
ENDCHAR
STARTCHAR dieresis
ENCODING 168
SWIDTH 527 0
DWIDTH 10 0
BBX 5 1 2 10
BITMAP
A0C0
ENDCHAR
STARTCHAR copyright
ENCODING 169
SWIDTH 770 0
DWIDTH 14 0
BBX 12 12 1 0
BITMAP
01BE40
0A41A0
240018
90BE09
C34142
860002
890002
C60002
934149
34BE18
0E41A0
01BE40
ENDCHAR
STARTCHAR ordfeminine
ENCODING 170
SWIDTH 497 0
DWIDTH 9 0
BBX 8 8 0 4
BITMAP
2FF8
0006
06BF
7503
601B
2FFB
0000
7FFF
ENDCHAR
STARTCHAR guillemotleft
ENCODING 171
SWIDTH 440 0
DWIDTH 8 0
BBX 7 7 0 3
BITMAP
0608
0D28
28A0
70D0
28A0
0D28
0608
ENDCHAR
STARTCHAR logicalnot
ENCODING 172
SWIDTH 634 0
DWIDTH 11 0
BBX 9 4 1 4
BITMAP
7FFFC0
0000C0
0000C0
0000C0
ENDCHAR
STARTCHAR uni00AD
ENCODING 173
SWIDTH 540 0
DWIDTH 10 0
BBX 8 1 1 6
BITMAP
BFFD
ENDCHAR
STARTCHAR registered
ENCODING 174
SWIDTH 600 0
DWIDTH 11 0
BBX 9 9 1 3
BITMAP
0BE400
281A00
97E240
852480
87E080
852080
951640
281A00
0BF400
ENDCHAR
STARTCHAR macron
ENCODING 175
SWIDTH 527 0
DWIDTH 10 0
BBX 5 1 2 10
BITMAP
BFC0
ENDCHAR
STARTCHAR degree
ENCODING 176
SWIDTH 373 0
DWIDTH 7 0
BBX 5 4 1 8
BITMAP
2E00
9240
9240
2E00
ENDCHAR
STARTCHAR plusminus
ENCODING 177
SWIDTH 634 0
DWIDTH 11 0
BBX 9 9 1 1
BITMAP
009000
009000
009000
7FFFC0
009000
009000
009000
000000
7FFFC0
ENDCHAR
STARTCHAR twosuperior
ENCODING 178
SWIDTH 511 0
DWIDTH 9 0
BBX 9 8 0 4
BITMAP
1BE800
641A00
000300
000600
001800
019000
1A0000
7FFF40
ENDCHAR
STARTCHAR threesuperior
ENCODING 179
SWIDTH 512 0
DWIDTH 9 0
BBX 8 8 0 4
BITMAP
1BF8
640A
0019
03F4
001A
0003
641A
1BF8
ENDCHAR
STARTCHAR acute
ENCODING 180
SWIDTH 527 0
DWIDTH 10 0
BBX 5 3 3 10
BITMAP
0180
1E40
6400
ENDCHAR
STARTCHAR micro
ENCODING 181
SWIDTH 705 0
DWIDTH 13 0
BBX 11 12 0 -4
BITMAP
07001C
060018
090028
090024
0C0030
0C00B0
1E0670
25F930
240000
300000
300000
600000
ENDCHAR
STARTCHAR paragraph
ENCODING 182
SWIDTH 585 0
DWIDTH 11 0
BBX 8 12 1 0
BITMAP
1BFD
7FC5
BFC5
FFC5
BFC5
7FC5
1BC5
0085
0085
0085
0085
0085
ENDCHAR
STARTCHAR periodcentered
ENCODING 183
SWIDTH 185 0
DWIDTH 3 0
BBX 2 2 1 5
BITMAP
D0
D0
ENDCHAR
STARTCHAR cedilla
ENCODING 184
SWIDTH 527 0
DWIDTH 10 0
BBX 5 4 2 -4
BITMAP
0800
0F40
0180
7F40
ENDCHAR
STARTCHAR onesuperior
ENCODING 185
SWIDTH 261 0
DWIDTH 5 0
BBX 3 8 0 4
BITMAP
BC
0C
0C
0C
0C
0C
0C
0C
ENDCHAR
STARTCHAR ordmasculine
ENCODING 186
SWIDTH 520 0
DWIDTH 9 0
BBX 9 8 0 4
BITMAP
0BF900
380740
600180
600180
380740
0BF900
000000
3FFF40
ENDCHAR
STARTCHAR guillemotright
ENCODING 187
SWIDTH 440 0
DWIDTH 8 0
BBX 7 7 1 3
BITMAP
8240
A1C0
24A0
1C34
24A0
A1C0
8240
ENDCHAR
STARTCHAR onequarter
ENCODING 188
SWIDTH 857 0
DWIDTH 15 0
BBX 15 12 0 0
BITMAP
BD000600
09001C00
09003400
09009000
09028000
09060000
001C0380
00340980
00906480
02818080
0602FFF8
1C000080
ENDCHAR
STARTCHAR onehalf
ENCODING 189
SWIDTH 937 0
DWIDTH 17 0
BBX 16 12 0 0
BITMAP
BD000600
09001C00
09003400
09009000
09028000
09060BE4
001C241D
00340009
00900018
028000A0
06000640
1C002FFD
ENDCHAR
STARTCHAR threequarters
ENCODING 190
SWIDTH 978 0
DWIDTH 18 0
BBX 16 12 1 0
BITMAP
FF8001C0
00A00340
00A00900
0F802800
00606000
0071C000
FF9340B0
00090270
00280930
00602430
01C0BFFE
03400030
ENDCHAR
STARTCHAR questiondown
ENCODING 191
SWIDTH 568 0
DWIDTH 10 0
BBX 8 12 1 0
BITMAP
0034
0034
0000
0000
0024
0074
0B90
7400
A000
A000
7806
1BF9
ENDCHAR
STARTCHAR Agrave
ENCODING 192
SWIDTH 812 0
DWIDTH 15 0
BBX 14 16 0 0
BITMAP
00A00000
006D0000
00064000
00000000
000B4000
000E8000
0028D000
00706000
00A03400
01C01C00
02800D00
07000700
0BFFFF40
1C0001C0
340000A0
60000070
ENDCHAR
STARTCHAR Aacute
ENCODING 193
SWIDTH 812 0
DWIDTH 15 0
BBX 14 16 0 0
BITMAP
00002400
0002E000
000A0000
00000000
000B4000
000E8000
0028D000
00706000
00A03400
01C01C00
02800D00
07000700
0BFFFF40
1C0001C0
340000A0
60000070
ENDCHAR
STARTCHAR Acircumflex
ENCODING 194
SWIDTH 812 0
DWIDTH 15 0
BBX 14 16 0 0
BITMAP
00064000
00299000
00901400
00000000
000B4000
000E8000
0028D000
00706000
00A03400
01C01C00
02800D00
07000700
0BFFFF40
1C0001C0
340000A0
60000070
ENDCHAR
STARTCHAR Atilde
ENCODING 195
SWIDTH 812 0
DWIDTH 15 0
BBX 14 15 0 0
BITMAP
007D2400
0096E000
00000000
000B4000
000E8000
0028D000
00706000
00A03400
01C01C00
02800D00
07000700
0BFFFF40
1C0001C0
340000A0
60000070
ENDCHAR
STARTCHAR Adieresis
ENCODING 196
SWIDTH 812 0
DWIDTH 15 0
BBX 14 14 0 0
BITMAP
0034A000
00000000
000B4000
000E8000
0028D000
00706000
00A03400
01C01C00
02800D00
07000700
0BFFFF40
1C0001C0
340000A0
60000070
ENDCHAR
STARTCHAR Aring
ENCODING 197
SWIDTH 812 0
DWIDTH 15 0
BBX 14 16 0 0
BITMAP
001F9000
0034A000
001F9000
00000000
000B4000
000E8000
0028D000
00706000
00A03400
01C01C00
02800D00
07000700
0BFFFF40
1C0001C0
340000A0
60000070
ENDCHAR
STARTCHAR AE
ENCODING 198
SWIDTH 1172 0
DWIDTH 21 0
BBX 20 12 0 0
BITMAP
0001FFFFFE
0002580000
000A180000
001C180000
0034180000
00A01FFFFD
01D0180000
0380180000
0BFFF80000
1D00180000
3400180000
A0001FFFFE
ENDCHAR
STARTCHAR Ccedilla
ENCODING 199
SWIDTH 869 0
DWIDTH 16 0
BBX 14 16 1 -4
BITMAP
006FE800
07900680
28000050
70000000
A0000000
90000000
90000000
A0000000
70000000
28000050
0B900680
006FE800
00020000
00078000
00009000
002F8000
ENDCHAR
STARTCHAR Egrave
ENCODING 200
SWIDTH 754 0
DWIDTH 14 0
BBX 11 16 2 0
BITMAP
090000
078000
006000
000000
FFFFF0
D00000
D00000
D00000
D00000
FFFFE0
D00000
D00000
D00000
D00000
D00000
FFFFF4
ENDCHAR
STARTCHAR Eacute
ENCODING 201
SWIDTH 754 0
DWIDTH 14 0
BBX 11 16 2 0
BITMAP
000600
006D00
009000
000000
FFFFF0
D00000
D00000
D00000
D00000
FFFFE0
D00000
D00000
D00000
D00000
D00000
FFFFF4
ENDCHAR
STARTCHAR Ecircumflex
ENCODING 202
SWIDTH 754 0
DWIDTH 14 0
BBX 11 16 2 0
BITMAP
00A000
075D00
180240
000000
FFFFF0
D00000
D00000
D00000
D00000
FFFFE0
D00000
D00000
D00000
D00000
D00000
FFFFF4
ENDCHAR
STARTCHAR Edieresis
ENCODING 203
SWIDTH 754 0
DWIDTH 14 0
BBX 11 14 2 0
BITMAP
070D00
000000
FFFFF0
D00000
D00000
D00000
D00000
FFFFE0
D00000
D00000
D00000
D00000
D00000
FFFFF4
ENDCHAR
STARTCHAR Igrave
ENCODING 204
SWIDTH 287 0
DWIDTH 5 0
BBX 5 16 -1 0
BITMAP
6000
2D00
0240
0000
0300
0300
0300
0300
0300
0300
0300
0300
0300
0300
0300
0300
ENDCHAR
STARTCHAR Iacute
ENCODING 205
SWIDTH 287 0
DWIDTH 5 0
BBX 5 16 1 0
BITMAP
0240
1E40
6400
0000
3000
3000
3000
3000
3000
3000
3000
3000
3000
3000
3000
3000
ENDCHAR
STARTCHAR Icircumflex
ENCODING 206
SWIDTH 287 0
DWIDTH 5 0
BBX 7 16 -1 0
BITMAP
0640
29A0
9018
0000
0300
0300
0300
0300
0300
0300
0300
0300
0300
0300
0300
0300
ENDCHAR
STARTCHAR Idieresis
ENCODING 207
SWIDTH 287 0
DWIDTH 5 0
BBX 5 14 0 0
BITMAP
91C0
0000
0C00
0C00
0C00
0C00
0C00
0C00
0C00
0C00
0C00
0C00
0C00
0C00
ENDCHAR
STARTCHAR Eth
ENCODING 208
SWIDTH 910 0
DWIDTH 16 0
BBX 16 12 0 0
BITMAP
0FFFF900
0C0016D0
0C000074
0C000018
0C00000C
BFFF000D
0C00000D
0C00000C
0C000018
0C000074
0C0006D0
0FFFF900
ENDCHAR
STARTCHAR Ntilde
ENCODING 209
SWIDTH 936 0
DWIDTH 17 0
BBX 13 15 2 0
BITMAP
00F45000
024B8000
00000000
E0000180
F8000180
DA000180
C2800180
C0A00180
C0280180
C00A0180
C0028180
C000A180
C0002980
C0000A80
C0000280
ENDCHAR
STARTCHAR Ograve
ENCODING 210
SWIDTH 983 0
DWIDTH 18 0
BBX 16 16 1 0
BITMAP
00240000
001E0000
00018000
00000000
006FF900
0B9006D0
28000074
7000001C
A0000009
90000009
90000009
A0000009
7000001C
28000074
0B9006D0
01AFF900
ENDCHAR
STARTCHAR Oacute
ENCODING 211
SWIDTH 983 0
DWIDTH 18 0
BBX 16 16 1 0
BITMAP
00001800
0001A400
00024000
00000000
006FF900
0B9006D0
28000074
7000001C
A0000009
90000009
90000009
A0000009
7000001C
28000074
0B9006D0
01AFF900
ENDCHAR
STARTCHAR Ocircumflex
ENCODING 212
SWIDTH 983 0
DWIDTH 18 0
BBX 16 16 1 0
BITMAP
00028000
001DA400
00600800
00000000
006FF900
0B9006D0
28000074
7000001C
A0000009
90000009
90000009
A0000009
7000001C
28000074
0B9006D0
01AFF900
ENDCHAR
STARTCHAR Otilde
ENCODING 213
SWIDTH 983 0
DWIDTH 18 0
BBX 16 15 1 0
BITMAP
002E4C00
0021B400
00000000
006FF900
0B9006D0
28000074
7000001C
A0000009
90000009
90000009
A0000009
7000001C
28000074
0B9006D0
01AFF900
ENDCHAR
STARTCHAR Odieresis
ENCODING 214
SWIDTH 983 0
DWIDTH 18 0
BBX 16 14 1 0
BITMAP
00283400
00000000
006FF900
0B9006D0
28000074
7000001C
A0000009
90000009
90000009
A0000009
7000001C
28000074
0B9006D0
01AFF900
ENDCHAR
STARTCHAR multiply
ENCODING 215
SWIDTH 634 0
DWIDTH 11 0
BBX 7 7 2 2
BITMAP
9008
7424
0D90
0780
0D90
3424
9008
ENDCHAR
STARTCHAR Oslash
ENCODING 216
SWIDTH 983 0
DWIDTH 18 0
BBX 16 14 1 -1
BITMAP
00000090
006FFA80
0B900BD0
28000C74
7000241C
A000A00D
90018009
90030009
A0090009
7028001C
28600074
0BD006D0
02AFF900
09000000
ENDCHAR
STARTCHAR Ugrave
ENCODING 217
SWIDTH 891 0
DWIDTH 16 0
BBX 12 16 2 0
BITMAP
024000
01E400
001800
000000
C00003
C00003
C00003
C00003
C00003
C00003
C00003
C00003
C00003
A0000A
39006C
06FF90
ENDCHAR
STARTCHAR Uacute
ENCODING 218
SWIDTH 891 0
DWIDTH 16 0
BBX 12 16 2 0
BITMAP
000180
000B40
002400
000000
C00003
C00003
C00003
C00003
C00003
C00003
C00003
C00003
C00003
A0000A
39006C
06FF90
ENDCHAR
STARTCHAR Ucircumflex
ENCODING 219
SWIDTH 891 0
DWIDTH 16 0
BBX 12 16 2 0
BITMAP
002800
01D740
020090
000000
C00003
C00003
C00003
C00003
C00003
C00003
C00003
C00003
C00003
A0000A
39006C
06FF90
ENDCHAR
STARTCHAR Udieresis
ENCODING 220
SWIDTH 891 0
DWIDTH 16 0
BBX 12 14 2 0
BITMAP
01C340
000000
C00003
C00003
C00003
C00003
C00003
C00003
C00003
C00003
C00003
A0000A
39006C
06FF90
ENDCHAR
STARTCHAR Yacute
ENCODING 221
SWIDTH 763 0
DWIDTH 14 0
BBX 12 16 1 0
BITMAP
000180
001A40
002400
000000
D0000A
740018
1C0070
0600D0
028340
009A00
003800
002400
002400
002400
002400
002400
ENDCHAR
STARTCHAR Thorn
ENCODING 222
SWIDTH 787 0
DWIDTH 14 0
BBX 11 12 2 0
BITMAP
C00000
C00000
FFFF90
C00074
C0001C
C0000C
C0001C
C00074
FFFF90
C00000
C00000
C00000
ENDCHAR
STARTCHAR germandbls
ENCODING 223
SWIDTH 863 0
DWIDTH 16 0
BBX 14 12 1 0
BITMAP
01BFE400
1E401A00
34000340
70000340
60001A00
607FF800
60001B40
600001D0
60000090
600000D0
61900780
606FF900
ENDCHAR
STARTCHAR agrave
ENCODING 224
SWIDTH 888 0
DWIDTH 16 0
BBX 13 16 1 0
BITMAP
00900000
00780000
00060000
00000000
06BFE400
29001B00
00000280
000000C0
000000C0
001AAFC0
0BA540C0
740000C0
900000C0
D00001C0
79006AC0
1BFE90C0
ENDCHAR
STARTCHAR aacute
ENCODING 225
SWIDTH 888 0
DWIDTH 16 0
BBX 13 16 1 0
BITMAP
00006000
0006D000
00090000
00000000
06BFE400
29001B00
00000280
000000C0
000000C0
001AAFC0
0BA540C0
740000C0
900000C0
D00001C0
79006AC0
1BFE90C0
ENDCHAR
STARTCHAR acircumflex
ENCODING 226
SWIDTH 888 0
DWIDTH 16 0
BBX 13 16 1 0
BITMAP
000A0000
00769000
01802000
00000000
06BFE400
29001B00
00000280
000000C0
000000C0
001AAFC0
0BA540C0
740000C0
900000C0
D00001C0
79006AC0
1BFE90C0
ENDCHAR
STARTCHAR atilde
ENCODING 227
SWIDTH 888 0
DWIDTH 16 0
BBX 13 15 1 0
BITMAP
00B93000
0086D000
00000000
06BFE400
29001B00
00000280
000000C0
000000C0
001AAFC0
0BA540C0
740000C0
900000C0
D00001C0
79006AC0
1BFE90C0
ENDCHAR
STARTCHAR adieresis
ENCODING 228
SWIDTH 888 0
DWIDTH 16 0
BBX 13 14 1 0
BITMAP
0060D000
00000000
06BFE400
29001B00
00000280
000000C0
000000C0
001AAFC0
0BA540C0
740000C0
900000C0
D00001C0
79006AC0
1BFE90C0
ENDCHAR
STARTCHAR aring
ENCODING 229
SWIDTH 888 0
DWIDTH 16 0
BBX 13 16 1 0
BITMAP
002F8000
0060C000
002F8000
00000000
06BFE400
29001B00
00000280
000000C0
000000C0
001AAFC0
0BA540C0
740000C0
900000C0
D00001C0
79006AC0
1BFE90C0
ENDCHAR
STARTCHAR ae
ENCODING 230
SWIDTH 1551 0
DWIDTH 28 0
BBX 26 12 1 0
BITMAP
06BFE401BFE400
29001B0A401B00
000002A40001C0
000000E0000090
000000D0000060
001AAFFFFFFFF0
0BE540C0000000
740000D0000000
900000B0000000
D00001B8000000
79006E4B900580
1BFF9001AFF900
ENDCHAR
STARTCHAR ccedilla
ENCODING 231
SWIDTH 869 0
DWIDTH 16 0
BBX 14 16 1 -4
BITMAP
006FE800
07900680
28000050
70000000
A0000000
90000000
90000000
A0000000
70000000
28000050
0B900680
006FE800
00020000
00078000
00009000
002F8000
ENDCHAR
STARTCHAR egrave
ENCODING 232
SWIDTH 910 0
DWIDTH 16 0
BBX 15 16 1 0
BITMAP
00900000
006D0000
00060000
00000000
00AFE400
0B501B40
280001D0
70000060
90000030
BFFFFFF4
90000000
A0000000
74000000
2D000000
0B900590
00AFFA40
ENDCHAR
STARTCHAR eacute
ENCODING 233
SWIDTH 910 0
DWIDTH 16 0
BBX 15 16 1 0
BITMAP
00006000
0002D000
00090000
00000000
00AFE400
0B501B40
280001D0
70000060
90000030
BFFFFFF4
90000000
A0000000
74000000
2D000000
0B900590
00AFFA40
ENDCHAR
STARTCHAR ecircumflex
ENCODING 234
SWIDTH 910 0
DWIDTH 16 0
BBX 15 16 1 0
BITMAP
00060000
0029D000
00902400
00000000
00AFE400
0B501B40
280001D0
70000060
90000030
BFFFFFF4
90000000
A0000000
74000000
2D000000
0B900590
00AFFA40
ENDCHAR
STARTCHAR edieresis
ENCODING 235
SWIDTH 910 0
DWIDTH 16 0
BBX 15 14 1 0
BITMAP
0070A000
00000000
00AFE400
0B501B40
280001D0
70000060
90000030
BFFFFFF4
90000000
A0000000
74000000
2D000000
0B900590
00AFFA40
ENDCHAR
STARTCHAR igrave
ENCODING 236
SWIDTH 287 0
DWIDTH 5 0
BBX 5 16 -1 0
BITMAP
6000
2E00
0280
0000
0300
0300
0300
0300
0300
0300
0300
0300
0300
0300
0300
0300
ENDCHAR
STARTCHAR iacute
ENCODING 237
SWIDTH 287 0
DWIDTH 5 0
BBX 5 16 1 0
BITMAP
0240
1E40
6400
0000
3000
3000
3000
3000
3000
3000
3000
3000
3000
3000
3000
3000
ENDCHAR
STARTCHAR icircumflex
ENCODING 238
SWIDTH 287 0
DWIDTH 5 0
BBX 7 16 -1 0
BITMAP
0640
29A0
9018
0000
0300
0300
0300
0300
0300
0300
0300
0300
0300
0300
0300
0300
ENDCHAR
STARTCHAR idieresis
ENCODING 239
SWIDTH 287 0
DWIDTH 5 0
BBX 5 14 0 0
BITMAP
91C0
0000
0C00
0C00
0C00
0C00
0C00
0C00
0C00
0C00
0C00
0C00
0C00
0C00
ENDCHAR
STARTCHAR eth
ENCODING 240
SWIDTH 910 0
DWIDTH 16 0
BBX 16 12 0 0
BITMAP
0FFFF900
0C0016D0
0C000074
0C000018
0C00000C
BFFF000D
0C00000D
0C00000C
0C000018
0C000074
0C0006D0
0FFFF900
ENDCHAR
STARTCHAR ntilde
ENCODING 241
SWIDTH 933 0
DWIDTH 17 0
BBX 13 15 2 0
BITMAP
01E49000
021B8000
00000000
C06FF800
C7941B00
F8000280
D0000180
C0000180
C0000180
C0000180
C0000180
C0000180
C0000180
C0000180
C0000180
ENDCHAR
STARTCHAR ograve
ENCODING 242
SWIDTH 983 0
DWIDTH 18 0
BBX 16 16 1 0
BITMAP
00240000
001E0000
00018000
00000000
006FF900
0B9006D0
28000074
7000001C
A0000009
90000009
90000009
A0000009
7000001C
28000074
0B9006D0
01AFF900
ENDCHAR
STARTCHAR oacute
ENCODING 243
SWIDTH 983 0
DWIDTH 18 0
BBX 16 16 1 0
BITMAP
00001800
0001A400
00024000
00000000
006FF900
0B9006D0
28000074
7000001C
A0000009
90000009
90000009
A0000009
7000001C
28000074
0B9006D0
01AFF900
ENDCHAR
STARTCHAR ocircumflex
ENCODING 244
SWIDTH 983 0
DWIDTH 18 0
BBX 16 16 1 0
BITMAP
00028000
001DA400
00600800
00000000
006FF900
0B9006D0
28000074
7000001C
A0000009
90000009
90000009
A0000009
7000001C
28000074
0B9006D0
01AFF900
ENDCHAR
STARTCHAR otilde
ENCODING 245
SWIDTH 983 0
DWIDTH 18 0
BBX 16 15 1 0
BITMAP
002E4C00
0021B400
00000000
006FF900
0B9006D0
28000074
7000001C
A0000009
90000009
90000009
A0000009
7000001C
28000074
0B9006D0
01AFF900
ENDCHAR
STARTCHAR odieresis
ENCODING 246
SWIDTH 983 0
DWIDTH 18 0
BBX 16 14 1 0
BITMAP
00283400
00000000
006FF900
0B9006D0
28000074
7000001C
A0000009
90000009
90000009
A0000009
7000001C
28000074
0B9006D0
01AFF900
ENDCHAR
STARTCHAR divide
ENCODING 247
SWIDTH 634 0
DWIDTH 11 0
BBX 9 7 1 3
BITMAP
00D000
000000
000000
7FFFC0
000000
000000
00D000
ENDCHAR
STARTCHAR oslash
ENCODING 248
SWIDTH 983 0
DWIDTH 18 0
BBX 16 14 1 -1
BITMAP
00000090
006FFA80
0B900BD0
28000C74
7000241C
A000A00D
90018009
90030009
A0090009
7028001C
28600074
0BD006D0
02AFF900
09000000
ENDCHAR
STARTCHAR ugrave
ENCODING 249
SWIDTH 931 0
DWIDTH 17 0
BBX 13 16 2 0
BITMAP
01800000
01B40000
00190000
00000000
C0000180
C0000180
C0000180
C0000180
C0000180
C0000180
C0000180
C0000180
C0000280
90001B80
7405A580
0BFA4180
ENDCHAR
STARTCHAR uacute
ENCODING 250
SWIDTH 931 0
DWIDTH 17 0
BBX 13 16 2 0
BITMAP
00009000
000B8000
00280000
00000000
C0000180
C0000180
C0000180
C0000180
C0000180
C0000180
C0000180
C0000180
C0000280
90001B80
7405A580
0BFA4180
ENDCHAR
STARTCHAR ucircumflex
ENCODING 251
SWIDTH 931 0
DWIDTH 17 0
BBX 13 16 2 0
BITMAP
00190000
00A68000
02406000
00000000
C0000180
C0000180
C0000180
C0000180
C0000180
C0000180
C0000180
C0000180
C0000280
90001B80
7405A580
0BFA4180
ENDCHAR
STARTCHAR udieresis
ENCODING 252
SWIDTH 931 0
DWIDTH 17 0
BBX 13 14 2 0
BITMAP
00D28000
00000000
C0000180
C0000180
C0000180
C0000180
C0000180
C0000180
C0000180
C0000180
C0000280
90001B80
7405A580
0BFA4180
ENDCHAR
STARTCHAR yacute
ENCODING 253
SWIDTH 911 0
DWIDTH 16 0
BBX 14 16 1 0
BITMAP
00006000
0006D000
00090000
00000000
60000090
60000090
60000090
70000090
300001D0
280007D0
0E406890
01BF9090
000000D0
00000280
65006E00
1AFFA400
ENDCHAR
STARTCHAR thorn
ENCODING 254
SWIDTH 787 0
DWIDTH 14 0
BBX 11 12 2 0
BITMAP
C00000
C00000
FFFF90
C00074
C0001C
C0000C
C0001C
C00074
FFFF90
C00000
C00000
C00000
ENDCHAR
STARTCHAR ydieresis
ENCODING 255
SWIDTH 911 0
DWIDTH 16 0
BBX 14 14 1 0
BITMAP
0070D000
00000000
60000090
60000090
60000090
70000090
300001D0
280007D0
0E406890
01BF9090
000000D0
00000280
65006E00
1AFFA400
ENDCHAR
STARTCHAR Amacron
ENCODING 256
SWIDTH 812 0
DWIDTH 15 0
BBX 14 14 0 0
BITMAP
003FE000
00000000
000B4000
000E8000
0028D000
00706000
00A03400
01C01C00
02800D00
07000700
0BFFFF40
1C0001C0
340000A0
60000070
ENDCHAR
STARTCHAR amacron
ENCODING 257
SWIDTH 888 0
DWIDTH 16 0
BBX 13 14 1 0
BITMAP
007FD000
00000000
06BFE400
29001B00
00000280
000000C0
000000C0
001AAFC0
0BA540C0
740000C0
900000C0
D00001C0
79006AC0
1BFE90C0
ENDCHAR
STARTCHAR Abreve
ENCODING 258
SWIDTH 812 0
DWIDTH 15 0
BBX 14 15 0 0
BITMAP
00607000
002F9000
00000000
000B4000
000E8000
0028D000
00706000
00A03400
01C01C00
02800D00
07000700
0BFFFF40
1C0001C0
340000A0
60000070
ENDCHAR
STARTCHAR abreve
ENCODING 259
SWIDTH 888 0
DWIDTH 16 0
BBX 13 15 1 0
BITMAP
00D0A000
002F8000
00000000
06BFE400
29001B00
00000280
000000C0
000000C0
001AAFC0
0BA540C0
740000C0
900000C0
D00001C0
79006AC0
1BFE90C0
ENDCHAR
STARTCHAR Aogonek
ENCODING 260
SWIDTH 812 0
DWIDTH 15 0
BBX 16 15 0 -3
BITMAP
000B4000
000E8000
0028D000
00706000
00A03400
01C01C00
02800D00
07000700
0BFFFF40
1C0001C0
340000A0
60000070
00000090
00000180
000000BD
ENDCHAR
STARTCHAR aogonek
ENCODING 261
SWIDTH 888 0
DWIDTH 16 0
BBX 15 15 1 -3
BITMAP
06BFE400
29001B00
00000280
000000C0
000000C0
001AAFC0
0BA540C0
740000C0
900000C0
D00001C0
79006EC0
1BFE90C0
00000240
00000600
000007F4
ENDCHAR
STARTCHAR Cacute
ENCODING 262
SWIDTH 869 0
DWIDTH 16 0
BBX 14 16 1 0
BITMAP
00001800
0001E400
00024000
00000000
006FE800
07900680
28000050
70000000
A0000000
90000000
90000000
A0000000
70000000
28000050
0B900680
006FE800
ENDCHAR
STARTCHAR cacute
ENCODING 263
SWIDTH 869 0
DWIDTH 16 0
BBX 14 16 1 0
BITMAP
00001800
0001E400
00024000
00000000
006FE800
07900680
28000050
70000000
A0000000
90000000
90000000
A0000000
70000000
28000050
0B900680
006FE800
ENDCHAR
STARTCHAR Ccircumflex
ENCODING 264
SWIDTH 869 0
DWIDTH 16 0
BBX 14 16 1 0
BITMAP
00024000
001DA000
00601800
00000000
006FE800
07900680
28000050
70000000
A0000000
90000000
90000000
A0000000
70000000
28000050
0B900680
006FE800
ENDCHAR
STARTCHAR ccircumflex
ENCODING 265
SWIDTH 869 0
DWIDTH 16 0
BBX 14 16 1 0
BITMAP
00024000
001DA000
00601800
00000000
006FE800
07900680
28000050
70000000
A0000000
90000000
90000000
A0000000
70000000
28000050
0B900680
006FE800
ENDCHAR
STARTCHAR Cdotaccent
ENCODING 266
SWIDTH 869 0
DWIDTH 16 0
BBX 14 14 1 0
BITMAP
00034000
00000000
006FE800
07900680
28000050
70000000
A0000000
90000000
90000000
A0000000
70000000
28000050
0B900680
006FE800
ENDCHAR
STARTCHAR cdotaccent
ENCODING 267
SWIDTH 869 0
DWIDTH 16 0
BBX 14 14 1 0
BITMAP
00034000
00000000
006FE800
07900680
28000050
70000000
A0000000
90000000
90000000
A0000000
70000000
28000050
0B900680
006FE800
ENDCHAR
STARTCHAR Ccaron
ENCODING 268
SWIDTH 869 0
DWIDTH 16 0
BBX 14 16 1 0
BITMAP
00601800
001DA000
00024000
00000000
006FE800
07900680
28000050
70000000
A0000000
90000000
90000000
A0000000
70000000
28000050
0B900680
006FE800
ENDCHAR
STARTCHAR ccaron
ENCODING 269
SWIDTH 869 0
DWIDTH 16 0
BBX 14 16 1 0
BITMAP
00601800
001DA000
00028000
00000000
006FE800
07900680
28000050
70000000
A0000000
90000000
90000000
A0000000
70000000
28000050
0B900680
006FE800
ENDCHAR
STARTCHAR Dcaron
ENCODING 270
SWIDTH 910 0
DWIDTH 16 0
BBX 14 16 2 0
BITMAP
18020000
07690000
00A00000
00000000
FFFFA000
C0006D00
C0000740
C0000180
C00000C0
C00000D0
C00000C0
C00000C0
C0000180
C0000740
C0006D00
FFFFA000
ENDCHAR
STARTCHAR dcaron
ENCODING 271
SWIDTH 910 0
DWIDTH 16 0
BBX 14 16 2 0
BITMAP
18020000
07690000
00A00000
00000000
FFFFA000
C0006D00
C0000740
C0000180
C00000C0
C00000D0
C00000C0
C00000C0
C0000180
C0000740
C0006D00
FFFFA000
ENDCHAR
STARTCHAR Dcroat
ENCODING 272
SWIDTH 910 0
DWIDTH 16 0
BBX 16 12 0 0
BITMAP
0FFFF900
0C0016D0
0C000074
0C000018
0C00000C
BFFF000D
0C00000D
0C00000C
0C000018
0C000074
0C0006D0
0FFFF900
ENDCHAR
STARTCHAR dcroat
ENCODING 273
SWIDTH 910 0
DWIDTH 16 0
BBX 16 12 0 0
BITMAP
0FFFF900
0C0016D0
0C000074
0C000018
0C00000C
BFFF000D
0C00000D
0C00000C
0C000018
0C000074
0C0006D0
0FFFF900
ENDCHAR
STARTCHAR Emacron
ENCODING 274
SWIDTH 754 0
DWIDTH 14 0
BBX 11 14 2 0
BITMAP
07FD00
000000
FFFFF0
D00000
D00000
D00000
D00000
FFFFE0
D00000
D00000
D00000
D00000
D00000
FFFFF4
ENDCHAR
STARTCHAR emacron
ENCODING 275
SWIDTH 910 0
DWIDTH 16 0
BBX 15 14 1 0
BITMAP
007FE000
00000000
00AFE400
0B501B40
280001D0
70000060
90000030
BFFFFFF4
90000000
A0000000
74000000
2D000000
0B900590
00AFFA40
ENDCHAR
STARTCHAR Ebreve
ENCODING 276
SWIDTH 754 0
DWIDTH 14 0
BBX 11 15 2 0
BITMAP
0D0600
02F800
000000
FFFFF0
D00000
D00000
D00000
D00000
FFFFE0
D00000
D00000
D00000
D00000
D00000
FFFFF4
ENDCHAR
STARTCHAR ebreve
ENCODING 277
SWIDTH 910 0
DWIDTH 16 0
BBX 15 15 1 0
BITMAP
00A07000
002F9000
00000000
00AFE400
0B501B40
280001D0
70000060
90000030
BFFFFFF4
90000000
A0000000
74000000
2D000000
0B900590
00AFFA40
ENDCHAR
STARTCHAR Edotaccent
ENCODING 278
SWIDTH 754 0
DWIDTH 14 0
BBX 11 14 2 0
BITMAP
00A000
000000
FFFFF0
D00000
D00000
D00000
D00000
FFFFE0
D00000
D00000
D00000
D00000
D00000
FFFFF4
ENDCHAR
STARTCHAR edotaccent
ENCODING 279
SWIDTH 910 0
DWIDTH 16 0
BBX 15 14 1 0
BITMAP
00070000
00000000
00AFE400
0B501B40
280001D0
70000060
90000030
BFFFFFF4
90000000
A0000000
74000000
2D000000
0B900590
00AFFA40
ENDCHAR
STARTCHAR Eogonek
ENCODING 280
SWIDTH 754 0
DWIDTH 14 0
BBX 11 15 2 -3
BITMAP
FFFFF0
D00000
D00000
D00000
D00000
FFFFE0
D00000
D00000
D00000
D00000
D00000
FFFFF4
000240
000A00
0007F4
ENDCHAR
STARTCHAR eogonek
ENCODING 281
SWIDTH 910 0
DWIDTH 16 0
BBX 15 15 1 -3
BITMAP
00AFE400
0B501B40
280001D0
70000060
90000030
BFFFFFF4
90000000
A0000000
74000000
2D000000
0B900590
00AFFB40
00000900
00000900
000007F0
ENDCHAR
STARTCHAR Ecaron
ENCODING 282
SWIDTH 754 0
DWIDTH 14 0
BBX 11 16 2 0
BITMAP
180240
075D00
00A000
000000
FFFFF0
D00000
D00000
D00000
D00000
FFFFE0
D00000
D00000
D00000
D00000
D00000
FFFFF4
ENDCHAR
STARTCHAR ecaron
ENCODING 283
SWIDTH 910 0
DWIDTH 16 0
BBX 15 16 1 0
BITMAP
00902400
0029D000
000A0000
00000000
00AFE400
0B501B40
280001D0
70000060
90000030
BFFFFFF4
90000000
A0000000
74000000
2D000000
0B900590
00AFFA40
ENDCHAR
STARTCHAR Gcircumflex
ENCODING 284
SWIDTH 910 0
DWIDTH 16 0
BBX 14 16 1 0
BITMAP
00028000
001DA400
00600800
00000000
006FF900
07900680
28000050
70000000
A0000000
90000000
9000FFF0
A0000070
70000070
2C000070
0B9001B0
006FFE50
ENDCHAR
STARTCHAR gcircumflex
ENCODING 285
SWIDTH 910 0
DWIDTH 16 0
BBX 14 16 1 0
BITMAP
00028000
001DA400
00600800
00000000
006FF900
07900680
28000050
70000000
A0000000
90000000
9000FFF0
A0000070
70000070
2C000070
0B9001B0
006FFE50
ENDCHAR
STARTCHAR Gbreve
ENCODING 286
SWIDTH 910 0
DWIDTH 16 0
BBX 14 15 1 0
BITMAP
00342800
001BE000
00000000
006FF900
07900680
28000050
70000000
A0000000
90000000
9000FFF0
A0000070
70000070
2C000070
0B9001B0
006FFE50
ENDCHAR
STARTCHAR gbreve
ENCODING 287
SWIDTH 910 0
DWIDTH 16 0
BBX 14 15 1 0
BITMAP
00342800
001BE000
00000000
006FF900
07900680
28000050
70000000
A0000000
90000000
9000FFF0
A0000070
70000070
2C000070
0B9001B0
006FFE50
ENDCHAR
STARTCHAR Gdotaccent
ENCODING 288
SWIDTH 910 0
DWIDTH 16 0
BBX 14 14 1 0
BITMAP
00028000
00000000
006FF900
07900680
28000050
70000000
A0000000
90000000
9000FFF0
A0000070
70000070
2C000070
0B9001B0
006FFE50
ENDCHAR
STARTCHAR gdotaccent
ENCODING 289
SWIDTH 910 0
DWIDTH 16 0
BBX 14 14 1 0
BITMAP
00028000
00000000
006FF900
07900680
28000050
70000000
A0000000
90000000
9000FFF0
A0000070
70000070
2C000070
0B9001B0
006FFE50
ENDCHAR
STARTCHAR Gcommaaccent
ENCODING 290
SWIDTH 910 0
DWIDTH 16 0
BBX 14 15 1 -3
BITMAP
006FF900
07900680
28000050
70000000
A0000000
90000000
9000FFF0
A0000070
70000070
2C000070
0B9001B0
006FFE50
00000000
00018000
00024000
ENDCHAR
STARTCHAR gcommaaccent
ENCODING 291
SWIDTH 910 0
DWIDTH 16 0
BBX 14 15 1 -3
BITMAP
006FF900
07900680
28000050
70000000
A0000000
90000000
9000FFF0
A0000070
70000070
2C000070
0B9001B0
006FFE50
00000000
00018000
00024000
ENDCHAR
STARTCHAR Hcircumflex
ENCODING 292
SWIDTH 949 0
DWIDTH 17 0
BBX 13 16 2 0
BITMAP
00190000
00A68000
02406000
00000000
C00000C0
C00000C0
C00000C0
C00000C0
C00000C0
FFFFFFC0
C00000C0
C00000C0
C00000C0
C00000C0
C00000C0
C00000C0
ENDCHAR
STARTCHAR hcircumflex
ENCODING 293
SWIDTH 949 0
DWIDTH 17 0
BBX 13 16 2 0
BITMAP
00190000
00A68000
02406000
00000000
C00000C0
C00000C0
C00000C0
C00000C0
C00000C0
FFFFFFC0
C00000C0
C00000C0
C00000C0
C00000C0
C00000C0
C00000C0
ENDCHAR
STARTCHAR Hbar
ENCODING 294
SWIDTH 949 0
DWIDTH 17 0
BBX 17 12 0 0
BITMAP
0C00000C00
0C00000C00
BFFFFFFF80
0C00000C00
0C00000C00
0FFFFFFC00
0C00000C00
0C00000C00
0C00000C00
0C00000C00
0C00000C00
0C00000C00
ENDCHAR
STARTCHAR hbar
ENCODING 295
SWIDTH 949 0
DWIDTH 17 0
BBX 17 12 0 0
BITMAP
0C00000C00
0C00000C00
BFFFFFFF80
0C00000C00
0C00000C00
0FFFFFFC00
0C00000C00
0C00000C00
0C00000C00
0C00000C00
0C00000C00
0C00000C00
ENDCHAR
STARTCHAR Itilde
ENCODING 296
SWIDTH 287 0
DWIDTH 5 0
BBX 7 15 -1 0
BITMAP
2E18
62F4
0000
0300
0300
0300
0300
0300
0300
0300
0300
0300
0300
0300
0300
ENDCHAR
STARTCHAR itilde
ENCODING 297
SWIDTH 287 0
DWIDTH 5 0
BBX 7 15 -1 0
BITMAP
2E18
62F4
0000
0300
0300
0300
0300
0300
0300
0300
0300
0300
0300
0300
0300
ENDCHAR
STARTCHAR Imacron
ENCODING 298
SWIDTH 287 0
DWIDTH 5 0
BBX 5 14 0 0
BITMAP
BFC0
0000
0C00
0C00
0C00
0C00
0C00
0C00
0C00
0C00
0C00
0C00
0C00
0C00
ENDCHAR
STARTCHAR imacron
ENCODING 299
SWIDTH 287 0
DWIDTH 5 0
BBX 5 14 0 0
BITMAP
BFC0
0000
0C00
0C00
0C00
0C00
0C00
0C00
0C00
0C00
0C00
0C00
0C00
0C00
ENDCHAR
STARTCHAR Ibreve
ENCODING 300
SWIDTH 287 0
DWIDTH 5 0
BBX 7 15 -1 0
BITMAP
7424
1FD0
0000
0300
0300
0300
0300
0300
0300
0300
0300
0300
0300
0300
0300
ENDCHAR
STARTCHAR ibreve
ENCODING 301
SWIDTH 287 0
DWIDTH 5 0
BBX 7 15 -1 0
BITMAP
7424
1FD0
0000
0300
0300
0300
0300
0300
0300
0300
0300
0300
0300
0300
0300
ENDCHAR
STARTCHAR Iogonek
ENCODING 302
SWIDTH 287 0
DWIDTH 5 0
BBX 5 15 0 -3
BITMAP
0C00
0C00
0C00
0C00
0C00
0C00
0C00
0C00
0C00
0C00
0C00
0C00
2400
A000
7F40
ENDCHAR
STARTCHAR iogonek
ENCODING 303
SWIDTH 287 0
DWIDTH 5 0
BBX 5 15 0 -3
BITMAP
0C00
0C00
0C00
0C00
0C00
0C00
0C00
0C00
0C00
0C00
0C00
0C00
2400
A000
7F40
ENDCHAR
STARTCHAR Idotaccent
ENCODING 304
SWIDTH 287 0
DWIDTH 5 0
BBX 2 14 2 0
BITMAP
D0
00
C0
C0
C0
C0
C0
C0
C0
C0
C0
C0
C0
C0
ENDCHAR
STARTCHAR dotlessi
ENCODING 305
SWIDTH 287 0
DWIDTH 5 0
BBX 1 12 2 0
BITMAP
C0
C0
C0
C0
C0
C0
C0
C0
C0
C0
C0
C0
ENDCHAR
STARTCHAR IJ
ENCODING 306
SWIDTH 877 0
DWIDTH 16 0
BBX 12 12 2 0
BITMAP
C00006
C00006
C00006
C00006
C00006
C00006
C00006
C00006
C00006
C0000A
C2406C
C0AFA0
ENDCHAR
STARTCHAR ij
ENCODING 307
SWIDTH 877 0
DWIDTH 16 0
BBX 12 12 2 0
BITMAP
C00006
C00006
C00006
C00006
C00006
C00006
C00006
C00006
C00006
C0000A
C2406C
C0AFA0
ENDCHAR
STARTCHAR Jcircumflex
ENCODING 308
SWIDTH 590 0
DWIDTH 11 0
BBX 12 16 0 0
BITMAP
000280
001A74
002009
000000
000180
000180
000180
000180
000180
000180
000180
000180
000180
000240
901A00
6FE400
ENDCHAR
STARTCHAR jcircumflex
ENCODING 309
SWIDTH 590 0
DWIDTH 11 0
BBX 12 16 0 0
BITMAP
000280
001A74
002009
000000
000180
000180
000180
000180
000180
000180
000180
000180
000180
000240
901A00
6FE400
ENDCHAR
STARTCHAR Kcommaaccent
ENCODING 310
SWIDTH 806 0
DWIDTH 15 0
BBX 12 15 2 -3
BITMAP
C00028
C001D0
C00A00
C07400
C68000
ED0000
DA0000
C1D000
C02800
C00740
C000A0
C0001D
000000
007000
005000
ENDCHAR
STARTCHAR kcommaaccent
ENCODING 311
SWIDTH 867 0
DWIDTH 16 0
BBX 13 15 2 -3
BITMAP
C0000A00
C0000D00
C0002800
C000A000
C01A4000
FFF80000
C01B8000
C0007400
C0001D00
C0000A00
C0000340
C0000240
00000000
00240000
00300000
ENDCHAR
STARTCHAR kgreenlandic
ENCODING 312
SWIDTH 867 0
DWIDTH 16 0
BBX 13 12 2 0
BITMAP
C0000A00
C0000D00
C0002800
C000A000
C01A4000
FFF80000
C01B8000
C0007400
C0001D00
C0000A00
C0000340
C0000240
ENDCHAR
STARTCHAR Lacute
ENCODING 313
SWIDTH 701 0
DWIDTH 13 0
BBX 11 16 1 0
BITMAP
024000
1E4000
640000
000000
300000
300000
300000
300000
300000
300000
300000
300000
300000
300000
300000
3FFFFC
ENDCHAR
STARTCHAR lacute
ENCODING 314
SWIDTH 709 0
DWIDTH 13 0
BBX 12 16 1 0
BITMAP
024000
1E4000
640000
000000
300000
300000
300000
300000
300000
300000
300000
300000
340000
240000
1D0000
06FFFE
ENDCHAR
STARTCHAR Lcommaaccent
ENCODING 315
SWIDTH 701 0
DWIDTH 13 0
BBX 10 15 2 -3
BITMAP
C00000
C00000
C00000
C00000
C00000
C00000
C00000
C00000
C00000
C00000
C00000
FFFFF0
000000
006000
009000
ENDCHAR
STARTCHAR lcommaaccent
ENCODING 316
SWIDTH 709 0
DWIDTH 13 0
BBX 11 15 2 -3
BITMAP
C00000
C00000
C00000
C00000
C00000
C00000
C00000
C00000
D00000
900000
740000
1BFFF8
000000
003000
006000
ENDCHAR
STARTCHAR Lcaron
ENCODING 317
SWIDTH 701 0
DWIDTH 13 0
BBX 10 12 2 0
BITMAP
C00900
C00C00
C00800
C00000
C00000
C00000
C00000
C00000
C00000
C00000
C00000
FFFFF0
ENDCHAR
STARTCHAR lcaron
ENCODING 318
SWIDTH 709 0
DWIDTH 13 0
BBX 11 12 2 0
BITMAP
C00900
C00C00
C00800
C00000
C00000
C00000
C00000
C00000
D00000
900000
740000
1BFFF8
ENDCHAR
STARTCHAR Ldot
ENCODING 319
SWIDTH 701 0
DWIDTH 13 0
BBX 10 12 2 0
BITMAP
C00000
C00000
C00000
C00000
C00000
C00E00
C00E00
C00000
C00000
C00000
C00000
FFFFF0
ENDCHAR
STARTCHAR ldotaccent
ENCODING 320
SWIDTH 709 0
DWIDTH 13 0
BBX 11 12 2 0
BITMAP
C00000
C00000
C00000
C00000
C00000
C00A00
C00A00
C00000
D00000
900000
740000
1BFFF8
ENDCHAR
STARTCHAR Lslash
ENCODING 321
SWIDTH 701 0
DWIDTH 13 0
BBX 12 12 0 0
BITMAP
0C0000
0C0000
0C0000
0C0000
0D6800
1F9000
AC0000
0C0000
0C0000
0C0000
0C0000
0FFFFF
ENDCHAR
STARTCHAR lslash
ENCODING 322
SWIDTH 709 0
DWIDTH 13 0
BBX 13 12 0 0
BITMAP
0C000000
0C000000
0C000000
0C000000
0D680000
1F900000
AC000000
0C000000
0D000000
09000000
07400000
01BFFF80
ENDCHAR
STARTCHAR Nacute
ENCODING 323
SWIDTH 936 0
DWIDTH 17 0
BBX 13 16 2 0
BITMAP
00009000
00078000
00180000
00000000
E0000180
F8000180
DA000180
C2800180
C0A00180
C0280180
C00A0180
C0028180
C000A180
C0002980
C0000A80
C0000280
ENDCHAR
STARTCHAR nacute
ENCODING 324
SWIDTH 933 0
DWIDTH 17 0
BBX 13 16 2 0
BITMAP
00018000
000B4000
00240000
00000000
C06FF800
C7941B00
F8000280
D0000180
C0000180
C0000180
C0000180
C0000180
C0000180
C0000180
C0000180
C0000180
ENDCHAR
STARTCHAR Ncommaaccent
ENCODING 325
SWIDTH 936 0
DWIDTH 17 0
BBX 13 15 2 -3
BITMAP
E0000180
F8000180
DA000180
C2800180
C0A00180
C0280180
C00A0180
C0028180
C000A180
C0002980
C0000A80
C0000280
00000000
000C0000
00180000
ENDCHAR
STARTCHAR ncommaaccent
ENCODING 326
SWIDTH 933 0
DWIDTH 17 0
BBX 13 15 2 -3
BITMAP
C06FF800
C7941B00
F8000280
D0000180
C0000180
C0000180
C0000180
C0000180
C0000180
C0000180
C0000180
C0000180
00000000
000C0000
00180000
ENDCHAR
STARTCHAR Ncaron
ENCODING 327
SWIDTH 936 0
DWIDTH 17 0
BBX 13 16 2 0
BITMAP
02406000
00A68000
00190000
00000000
E0000180
F8000180
DA000180
C2800180
C0A00180
C0280180
C00A0180
C0028180
C000A180
C0002980
C0000A80
C0000280
ENDCHAR
STARTCHAR ncaron
ENCODING 328
SWIDTH 933 0
DWIDTH 17 0
BBX 13 16 2 0
BITMAP
02409000
00A74000
00280000
00000000
C06FF800
C7941B00
F8000280
D0000180
C0000180
C0000180
C0000180
C0000180
C0000180
C0000180
C0000180
C0000180
ENDCHAR
STARTCHAR napostrophe
ENCODING 329
SWIDTH 1025 0
DWIDTH 18 0
BBX 17 12 0 0
BITMAP
A1806FE400
918B901A00
C1F4000340
01C0000240
0180000240
0180000240
0180000240
0180000240
0180000240
0180000240
0180000240
0180000240
ENDCHAR
STARTCHAR Eng
ENCODING 330
SWIDTH 936 0
DWIDTH 17 0
BBX 13 12 2 0
BITMAP
E0000180
DD000180
C2800180
C0A00180
C0190180
C0024180
C000A180
C0001980
C0000280
C0000280
C0240B00
C01BF800
ENDCHAR
STARTCHAR eng
ENCODING 331
SWIDTH 933 0
DWIDTH 17 0
BBX 13 12 2 0
BITMAP
C06FF800
C7941B00
F8000280
D0000180
C0000180
C0000180
C0000180
C0000180
C0000180
C0000280
C0240700
C01BF800
ENDCHAR
STARTCHAR Omacron
ENCODING 332
SWIDTH 983 0
DWIDTH 18 0
BBX 16 14 1 0
BITMAP
002FF400
00000000
006FF900
0B9006D0
28000074
7000001C
A0000009
90000009
90000009
A0000009
7000001C
28000074
0B9006D0
01AFF900
ENDCHAR
STARTCHAR omacron
ENCODING 333
SWIDTH 983 0
DWIDTH 18 0
BBX 16 14 1 0
BITMAP
002FF400
00000000
006FF900
0B9006D0
28000074
7000001C
A0000009
90000009
90000009
A0000009
7000001C
28000074
0B9006D0
01AFF900
ENDCHAR
STARTCHAR Obreve
ENCODING 334
SWIDTH 983 0
DWIDTH 18 0
BBX 16 15 1 0
BITMAP
00342800
001BE000
00000000
006FF900
0B9006D0
28000074
7000001C
A0000009
90000009
90000009
A0000009
7000001C
28000074
0B9006D0
01AFF900
ENDCHAR
STARTCHAR obreve
ENCODING 335
SWIDTH 983 0
DWIDTH 18 0
BBX 16 15 1 0
BITMAP
00342800
001BE000
00000000
006FF900
0B9006D0
28000074
7000001C
A0000009
90000009
90000009
A0000009
7000001C
28000074
0B9006D0
01AFF900
ENDCHAR
STARTCHAR Ohungarumlaut
ENCODING 336
SWIDTH 983 0
DWIDTH 18 0
BBX 16 16 1 0
BITMAP
00024900
000A2800
00186000
00000000
006FF900
0B9006D0
28000074
7000001C
A0000009
90000009
90000009
A0000009
7000001C
28000074
0B9006D0
01AFF900
ENDCHAR
STARTCHAR ohungarumlaut
ENCODING 337
SWIDTH 983 0
DWIDTH 18 0
BBX 16 16 1 0
BITMAP
00024900
000A2800
00186000
00000000
006FF900
0B9006D0
28000074
7000001C
A0000009
90000009
90000009
A0000009
7000001C
28000074
0B9006D0
01AFF900
ENDCHAR
STARTCHAR OE
ENCODING 338
SWIDTH 1338 0
DWIDTH 24 0
BBX 22 12 1 0
BITMAP
006FFFFFFFE0
0B9006800000
280001800000
700001800000
A00001800000
900001FFFFC0
900001800000
A00001800000
700001800000
280001800000
0B9006800000
01AFFFFFFFE0
ENDCHAR
STARTCHAR oe
ENCODING 339
SWIDTH 1688 0
DWIDTH 30 0
BBX 29 12 1 0
BITMAP
006FF90006FE8000
0B9006D079017400
2800007580000900
7000001F00000300
A000000A00000240
9000000BFFFFFF40
9000000A00000000
A000000B00000000
7000001F40000000
28000075D0000000
0B9006D079005900
01AFF90006FFA400
ENDCHAR
STARTCHAR Racute
ENCODING 340
SWIDTH 833 0
DWIDTH 15 0
BBX 12 16 2 0
BITMAP
000600
006900
009000
000000
FFFF90
C00068
C0000C
C0000D
C0000C
C00068
FFFF90
C00280
C000A0
C00034
C0001D
C00007
ENDCHAR
STARTCHAR racute
ENCODING 341
SWIDTH 609 0
DWIDTH 11 0
BBX 9 16 2 0
BITMAP
001800
00B400
024000
000000
C06FC0
C79000
E80000
E00000
C00000
C00000
C00000
C00000
C00000
C00000
C00000
C00000
ENDCHAR
STARTCHAR Rcommaaccent
ENCODING 342
SWIDTH 833 0
DWIDTH 15 0
BBX 12 15 2 -3
BITMAP
FFFF90
C00068
C0000C
C0000D
C0000C
C00068
FFFF90
C00280
C000A0
C00034
C0001D
C00007
000000
003000
006000
ENDCHAR
STARTCHAR rcommaaccent
ENCODING 343
SWIDTH 609 0
DWIDTH 11 0
BBX 9 15 2 -3
BITMAP
C06FC0
C79000
E80000
E00000
C00000
C00000
C00000
C00000
C00000
C00000
C00000
C00000
000000
D00000
C00000
ENDCHAR
STARTCHAR Rcaron
ENCODING 344
SWIDTH 833 0
DWIDTH 15 0
BBX 12 16 2 0
BITMAP
180600
076900
00A000
000000
FFFF90
C00068
C0000C
C0000D
C0000C
C00068
FFFF90
C00280
C000A0
C00034
C0001D
C00007
ENDCHAR
STARTCHAR rcaron
ENCODING 345
SWIDTH 609 0
DWIDTH 11 0
BBX 9 16 2 0
BITMAP
600900
1D7400
028000
000000
C06FC0
C79000
E80000
E00000
C00000
C00000
C00000
C00000
C00000
C00000
C00000
C00000
ENDCHAR
STARTCHAR Sacute
ENCODING 346
SWIDTH 787 0
DWIDTH 14 0
BBX 12 16 1 0
BITMAP
000180
001B40
002400
000000
06FF90
390068
600000
600000
290000
06E900
0016E0
00001D
000006
00000A
65006C
1AFF90
ENDCHAR
STARTCHAR sacute
ENCODING 347
SWIDTH 787 0
DWIDTH 14 0
BBX 12 16 1 0
BITMAP
000180
001B40
002400
000000
06FF90
390068
600000
600000
290000
06E900
0016E0
00001D
000006
00000A
65006C
1AFF90
ENDCHAR
STARTCHAR Scircumflex
ENCODING 348
SWIDTH 787 0
DWIDTH 14 0
BBX 12 16 1 0
BITMAP
002800
01D740
060090
000000
06FF90
390068
600000
600000
290000
06E900
0016E0
00001D
000006
00000A
65006C
1AFF90
ENDCHAR
STARTCHAR scircumflex
ENCODING 349
SWIDTH 787 0
DWIDTH 14 0
BBX 12 16 1 0
BITMAP
002800
01D740
060090
000000
06FF90
390068
600000
600000
290000
06E900
0016E0
00001D
000006
00000A
65006C
1AFF90
ENDCHAR
STARTCHAR Scedilla
ENCODING 350
SWIDTH 787 0
DWIDTH 14 0
BBX 12 16 1 -4
BITMAP
06FF90
390068
600000
600000
290000
06E900
0016E0
00001D
000006
00000A
65006C
1BFFA0
001400
002E00
000300
00FE00
ENDCHAR
STARTCHAR scedilla
ENCODING 351
SWIDTH 787 0
DWIDTH 14 0
BBX 12 16 1 -4
BITMAP
06FF90
390068
600000
600000
290000
06E900
0016E0
00001D
000006
00000A
65006C
1BFFA0
001400
002E00
000300
00FE00
ENDCHAR
STARTCHAR Scaron
ENCODING 352
SWIDTH 787 0
DWIDTH 14 0
BBX 12 16 1 0
BITMAP
060090
01D740
002800
000000
06FF90
390068
600000
600000
290000
06E900
0016E0
00001D
000006
00000A
65006C
1AFF90
ENDCHAR
STARTCHAR scaron
ENCODING 353
SWIDTH 787 0
DWIDTH 14 0
BBX 12 16 1 0
BITMAP
060090
01D740
002800
000000
06FF90
390068
600000
600000
290000
06E900
0016E0
00001D
000006
00000A
65006C
1AFF90
ENDCHAR
STARTCHAR Tcommaaccent
ENCODING 354
SWIDTH 708 0
DWIDTH 13 0
BBX 13 15 0 -3
BITMAP
BFFFFF40
000C0000
000C0000
000C0000
000C0000
000C0000
000C0000
000C0000
000C0000
000C0000
000C0000
000C0000
00000000
001C0000
00180000
ENDCHAR
STARTCHAR tcommaaccent
ENCODING 355
SWIDTH 708 0
DWIDTH 13 0
BBX 13 15 0 -3
BITMAP
BFFFFF40
000C0000
000C0000
000C0000
000C0000
000C0000
000C0000
000C0000
000C0000
000C0000
000C0000
000C0000
00000000
001C0000
00180000
ENDCHAR
STARTCHAR Tcaron
ENCODING 356
SWIDTH 708 0
DWIDTH 13 0
BBX 13 16 0 0
BITMAP
02406000
00A68000
00190000
00000000
BFFFFF40
000C0000
000C0000
000C0000
000C0000
000C0000
000C0000
000C0000
000C0000
000C0000
000C0000
000C0000
ENDCHAR
STARTCHAR tcaron
ENCODING 357
SWIDTH 708 0
DWIDTH 13 0
BBX 13 16 0 0
BITMAP
02406000
00A68000
00190000
00000000
BFFFFF40
000C0000
000C0000
000C0000
000C0000
000C0000
000C0000
000C0000
000C0000
000C0000
000C0000
000C0000
ENDCHAR
STARTCHAR Tbar
ENCODING 358
SWIDTH 708 0
DWIDTH 13 0
BBX 13 12 0 0
BITMAP
BFFFFF40
000C0000
000C0000
000C0000
000C0000
1FFFFC00
000C0000
000C0000
000C0000
000C0000
000C0000
000C0000
ENDCHAR
STARTCHAR tbar
ENCODING 359
SWIDTH 708 0
DWIDTH 13 0
BBX 13 12 0 0
BITMAP
BFFFFF40
000C0000
000C0000
000C0000
000C0000
1FFFFC00
000C0000
000C0000
000C0000
000C0000
000C0000
000C0000
ENDCHAR
STARTCHAR Utilde
ENCODING 360
SWIDTH 891 0
DWIDTH 16 0
BBX 12 15 2 0
BITMAP
01E480
031B80
000000
C00003
C00003
C00003
C00003
C00003
C00003
C00003
C00003
C00003
A0000A
39006C
06FF90
ENDCHAR
STARTCHAR utilde
ENCODING 361
SWIDTH 931 0
DWIDTH 17 0
BBX 13 15 2 0
BITMAP
01F49000
025B8000
00000000
C0000180
C0000180
C0000180
C0000180
C0000180
C0000180
C0000180
C0000180
C0000280
90001B80
7405A580
0BFA4180
ENDCHAR
STARTCHAR Umacron
ENCODING 362
SWIDTH 891 0
DWIDTH 16 0
BBX 12 14 2 0
BITMAP
01FF40
000000
C00003
C00003
C00003
C00003
C00003
C00003
C00003
C00003
C00003
A0000A
39006C
06FF90
ENDCHAR
STARTCHAR umacron
ENCODING 363
SWIDTH 931 0
DWIDTH 17 0
BBX 13 14 2 0
BITMAP
00FF8000
00000000
C0000180
C0000180
C0000180
C0000180
C0000180
C0000180
C0000180
C0000180
C0000280
90001B80
7405A580
0BFA4180
ENDCHAR
STARTCHAR Ubreve
ENCODING 364
SWIDTH 891 0
DWIDTH 16 0
BBX 12 15 2 0
BITMAP
0241C0
00BE00
000000
C00003
C00003
C00003
C00003
C00003
C00003
C00003
C00003
C00003
A0000A
39006C
06FF90
ENDCHAR
STARTCHAR ubreve
ENCODING 365
SWIDTH 931 0
DWIDTH 17 0
BBX 13 15 2 0
BITMAP
0181D000
00BF4000
00000000
C0000180
C0000180
C0000180
C0000180
C0000180
C0000180
C0000180
C0000180
C0000280
90001B80
7405A580
0BFA4180
ENDCHAR
STARTCHAR Uring
ENCODING 366
SWIDTH 891 0
DWIDTH 16 0
BBX 12 16 2 0
BITMAP
00BE00
018240
00BE00
000000
C00003
C00003
C00003
C00003
C00003
C00003
C00003
C00003
C00003
A0000A
39006C
06FF90
ENDCHAR
STARTCHAR uring
ENCODING 367
SWIDTH 931 0
DWIDTH 17 0
BBX 13 16 2 0
BITMAP
007E4000
00D28000
007E4000
00000000
C0000180
C0000180
C0000180
C0000180
C0000180
C0000180
C0000180
C0000180
C0000280
90001B80
7405A580
0BFA4180
ENDCHAR
STARTCHAR Uhungarumlaut
ENCODING 368
SWIDTH 891 0
DWIDTH 16 0
BBX 12 16 2 0
BITMAP
002450
00B6D0
018200
000000
C00003
C00003
C00003
C00003
C00003
C00003
C00003
C00003
C00003
A0000A
39006C
06FF90
ENDCHAR
STARTCHAR uhungarumlaut
ENCODING 369
SWIDTH 931 0
DWIDTH 17 0
BBX 13 16 2 0
BITMAP
00186000
0075D000
00924000
00000000
C0000180
C0000180
C0000180
C0000180
C0000180
C0000180
C0000180
C0000180
C0000280
90001B80
7405A580
0BFA4180
ENDCHAR
STARTCHAR Uogonek
ENCODING 370
SWIDTH 891 0
DWIDTH 16 0
BBX 12 15 2 -3
BITMAP
C00003
C00003
C00003
C00003
C00003
C00003
C00003
C00003
C00003
A0000A
39006C
06FF90
006000
00A000
007F40
ENDCHAR
STARTCHAR uogonek
ENCODING 371
SWIDTH 931 0
DWIDTH 17 0
BBX 14 15 2 -3
BITMAP
C0000180
C0000180
C0000180
C0000180
C0000180
C0000180
C0000180
C0000180
C0000280
90001B80
7405A580
0BFA4180
00000600
00000D00
00000BF0
ENDCHAR
STARTCHAR Wcircumflex
ENCODING 372
SWIDTH 1266 0
DWIDTH 23 0
BBX 21 16 1 0
BITMAP
000019000000
0000A6800000
000240600000
000000000000
C0002D0001C0
90003A000280
700073000300
340092400A00
2800C1C00D00
0C0180D01C00
090340A02400
070700303000
034A0024A000
018C0018D000
00E8000EC000
00B4000B4000
ENDCHAR
STARTCHAR wcircumflex
ENCODING 373
SWIDTH 1266 0
DWIDTH 23 0
BBX 21 16 1 0
BITMAP
000019000000
0000A6800000
000240600000
000000000000
C0002D0001C0
90003A000280
700073000300
340092400A00
2800C1C00D00
0C0180D01C00
090340A02400
070700303000
034A0024A000
018C0018D000
00E8000EC000
00B4000B4000
ENDCHAR
STARTCHAR Ycircumflex
ENCODING 374
SWIDTH 763 0
DWIDTH 14 0
BBX 12 16 1 0
BITMAP
002800
01DA40
060080
000000
D0000A
740018
1C0070
0600D0
028340
009A00
003800
002400
002400
002400
002400
002400
ENDCHAR
STARTCHAR ycircumflex
ENCODING 375
SWIDTH 911 0
DWIDTH 16 0
BBX 14 16 1 0
BITMAP
000A0000
0075D000
01802400
00000000
60000090
60000090
60000090
70000090
300001D0
280007D0
0E406890
01BF9090
000000D0
00000280
65006E00
1AFFA400
ENDCHAR
STARTCHAR Ydieresis
ENCODING 376
SWIDTH 763 0
DWIDTH 14 0
BBX 12 14 1 0
BITMAP
028340
000000
D0000A
740018
1C0070
0600D0
028340
009A00
003800
002400
002400
002400
002400
002400
ENDCHAR
STARTCHAR Zacute
ENCODING 377
SWIDTH 728 0
DWIDTH 13 0
BBX 11 16 1 0
BITMAP
000280
001E40
006400
000000
7FFFF8
000070
0001C0
000740
000D00
002400
00A000
028000
070000
1C0000
740000
BFFFFC
ENDCHAR
STARTCHAR zacute
ENCODING 378
SWIDTH 728 0
DWIDTH 13 0
BBX 11 16 1 0
BITMAP
000280
001E40
006400
000000
7FFFF8
000070
0001C0
000740
000D00
002400
00A000
028000
070000
1C0000
740000
BFFFFC
ENDCHAR
STARTCHAR Zdotaccent
ENCODING 379
SWIDTH 728 0
DWIDTH 13 0
BBX 11 14 1 0
BITMAP
003400
000000
7FFFF8
000070
0001C0
000740
000D00
002400
00A000
028000
070000
1C0000
740000
BFFFFC
ENDCHAR
STARTCHAR zdotaccent
ENCODING 380
SWIDTH 728 0
DWIDTH 13 0
BBX 11 14 1 0
BITMAP
003400
000000
7FFFF8
000070
0001C0
000740
000D00
002400
00A000
028000
070000
1C0000
740000
BFFFFC
ENDCHAR
STARTCHAR Zcaron
ENCODING 381
SWIDTH 728 0
DWIDTH 13 0
BBX 11 16 1 0
BITMAP
050180
019A00
006400
000000
7FFFF8
000070
0001C0
000740
000D00
002400
00A000
028000
070000
1C0000
740000
BFFFFC
ENDCHAR
STARTCHAR zcaron
ENCODING 382
SWIDTH 728 0
DWIDTH 13 0
BBX 11 16 1 0
BITMAP
050180
019A00
006400
000000
7FFFF8
000070
0001C0
000740
000D00
002400
00A000
028000
070000
1C0000
740000
BFFFFC
ENDCHAR
STARTCHAR florin
ENCODING 402
SWIDTH 835 0
DWIDTH 15 0
BBX 15 13 0 -1
BITMAP
00001BE0
00007414
00009000
0000C000
007FFE00
00024000
00034000
00070000
000A0000
000D0000
001C0000
50740000
2F900000
ENDCHAR
STARTCHAR AEacute
ENCODING 508
SWIDTH 1172 0
DWIDTH 21 0
BBX 20 16 0 0
BITMAP
0000000200
0000002E00
000000A000
0000000000
0001FFFFFE
0002580000
000A180000
001C180000
0034180000
00A01FFFFD
01D0180000
0380180000
0BFFF80000
1D00180000
3400180000
A0001FFFFE
ENDCHAR
STARTCHAR aeacute
ENCODING 509
SWIDTH 1551 0
DWIDTH 28 0
BBX 26 16 1 0
BITMAP
00000006000000
0000002D000000
00000090000000
00000000000000
06BFE401BFE400
29001B0A401B00
000002A40001C0
000000E0000090
000000D0000060
001AAFFFFFFFF0
0BE540C0000000
740000D0000000
900000B0000000
D00001B8000000
79006E4B900580
1BFF9001AFF900
ENDCHAR
STARTCHAR Oslashacute
ENCODING 510
SWIDTH 983 0
DWIDTH 18 0
BBX 16 17 1 -1
BITMAP
00001800
0001A400
00024000
00000090
006FFA80
0B900BD0
28000C74
7000241C
A000A00D
90018009
90030009
A0090009
7028001C
28600074
0BD006D0
02AFF900
09000000
ENDCHAR
STARTCHAR oslashacute
ENCODING 511
SWIDTH 983 0
DWIDTH 18 0
BBX 16 17 1 -1
BITMAP
00001800
0001A400
00024000
00000090
006FFA80
0B900BD0
28000C74
7000241C
A000A00D
90018009
90030009
A0090009
7028001C
28600074
0BD006D0
02AFF900
09000000
ENDCHAR
STARTCHAR dotlessj
ENCODING 567
SWIDTH 590 0
DWIDTH 11 0
BBX 9 12 0 0
BITMAP
000180
000180
000180
000180
000180
000180
000180
000180
000180
000240
901A00
6FE400
ENDCHAR
STARTCHAR circumflex
ENCODING 710
SWIDTH 527 0
DWIDTH 10 0
BBX 7 3 1 10
BITMAP
0240
1DA0
6018
ENDCHAR
STARTCHAR caron
ENCODING 711
SWIDTH 527 0
DWIDTH 10 0
BBX 7 3 1 10
BITMAP
6018
1DA0
0240
ENDCHAR
STARTCHAR breve
ENCODING 728
SWIDTH 527 0
DWIDTH 10 0
BBX 6 2 2 10
BITMAP
D0A0
6F80
ENDCHAR
STARTCHAR dotaccent
ENCODING 729
SWIDTH 527 0
DWIDTH 10 0
BBX 2 1 4 10
BITMAP
D0
ENDCHAR
STARTCHAR ring
ENCODING 730
SWIDTH 527 0
DWIDTH 10 0
BBX 5 3 2 10
BITMAP
2F40
61C0
2F40
ENDCHAR
STARTCHAR ogonek
ENCODING 731
SWIDTH 527 0
DWIDTH 10 0
BBX 4 3 3 -3
BITMAP
60
C0
BE
ENDCHAR
STARTCHAR tilde
ENCODING 732
SWIDTH 527 0
DWIDTH 10 0
BBX 7 2 1 10
BITMAP
2E58
61F4
ENDCHAR
STARTCHAR hungarumlaut
ENCODING 733
SWIDTH 527 0
DWIDTH 10 0
BBX 7 3 2 10
BITMAP
0824
28A0
5180
ENDCHAR
STARTCHAR commaaccent
ENCODING 806
SWIDTH 527 0
DWIDTH 10 0
BBX 2 2 4 -3
BITMAP
90
C0
ENDCHAR
STARTCHAR mu
ENCODING 956
SWIDTH 705 0
DWIDTH 13 0
BBX 11 12 0 -4
BITMAP
07001C
060018
090028
090024
0C0030
0C00B0
1E0670
25F930
240000
300000
300000
600000
ENDCHAR
STARTCHAR Wgrave
ENCODING 7808
SWIDTH 1266 0
DWIDTH 23 0
BBX 21 16 1 0
BITMAP
000180000000
0001B4000000
000019000000
000000000000
C0002D0001C0
90003A000280
700073000300
340092400A00
2800C1C00D00
0C0180D01C00
090340A02400
070700303000
034A0024A000
018C0018D000
00E8000EC000
00B4000B4000
ENDCHAR
STARTCHAR wgrave
ENCODING 7809
SWIDTH 1266 0
DWIDTH 23 0
BBX 21 16 1 0
BITMAP
000180000000
0001B4000000
000019000000
000000000000
C0002D0001C0
90003A000280
700073000300
340092400A00
2800C1C00D00
0C0180D01C00
090340A02400
070700303000
034A0024A000
018C0018D000
00E8000EC000
00B4000B4000
ENDCHAR
STARTCHAR Wacute
ENCODING 7810
SWIDTH 1266 0
DWIDTH 23 0
BBX 21 16 1 0
BITMAP
000000900000
00000B800000
000028000000
000000000000
C0002D0001C0
90003A000280
700073000300
340092400A00
2800C1C00D00
0C0180D01C00
090340A02400
070700303000
034A0024A000
018C0018D000
00E8000EC000
00B4000B4000
ENDCHAR
STARTCHAR wacute
ENCODING 7811
SWIDTH 1266 0
DWIDTH 23 0
BBX 21 16 1 0
BITMAP
000000900000
00000B800000
000028000000
000000000000
C0002D0001C0
90003A000280
700073000300
340092400A00
2800C1C00D00
0C0180D01C00
090340A02400
070700303000
034A0024A000
018C0018D000
00E8000EC000
00B4000B4000
ENDCHAR
STARTCHAR Wdieresis
ENCODING 7812
SWIDTH 1266 0
DWIDTH 23 0
BBX 21 14 1 0
BITMAP
0000D2800000
000000000000
C0002D0001C0
90003A000280
700073000300
340092400A00
2800C1C00D00
0C0180D01C00
090340A02400
070700303000
034A0024A000
018C0018D000
00E8000EC000
00B4000B4000
ENDCHAR
STARTCHAR wdieresis
ENCODING 7813
SWIDTH 1266 0
DWIDTH 23 0
BBX 21 14 1 0
BITMAP
0000D2800000
000000000000
C0002D0001C0
90003A000280
700073000300
340092400A00
2800C1C00D00
0C0180D01C00
090340A02400
070700303000
034A0024A000
018C0018D000
00E8000EC000
00B4000B4000
ENDCHAR
STARTCHAR Ygrave
ENCODING 7922
SWIDTH 763 0
DWIDTH 14 0
BBX 12 16 1 0
BITMAP
024000
01E000
001800
000000
D0000A
740018
1C0070
0600D0
028340
009A00
003800
002400
002400
002400
002400
002400
ENDCHAR
STARTCHAR ygrave
ENCODING 7923
SWIDTH 911 0
DWIDTH 16 0
BBX 14 16 1 0
BITMAP
00900000
00780000
00060000
00000000
60000090
60000090
60000090
70000090
300001D0
280007D0
0E406890
01BF9090
000000D0
00000280
65006E00
1AFFA400
ENDCHAR
STARTCHAR endash
ENCODING 8211
SWIDTH 419 0
DWIDTH 8 0
BBX 8 1 0 6
BITMAP
BFFD
ENDCHAR
STARTCHAR emdash
ENCODING 8212
SWIDTH 1000 0
DWIDTH 18 0
BBX 18 1 0 6
BITMAP
FFFFFFFFF0
ENDCHAR
STARTCHAR quoteleft
ENCODING 8216
SWIDTH 163 0
DWIDTH 3 0
BBX 3 3 0 9
BITMAP
24
30
70
ENDCHAR
STARTCHAR quoteright
ENCODING 8217
SWIDTH 163 0
DWIDTH 3 0
BBX 3 3 0 9
BITMAP
34
70
60
ENDCHAR
STARTCHAR quotesinglbase
ENCODING 8218
SWIDTH 163 0
DWIDTH 3 0
BBX 3 3 0 -1
BITMAP
34
70
60
ENDCHAR
STARTCHAR quotedblleft
ENCODING 8220
SWIDTH 303 0
DWIDTH 5 0
BBX 5 3 0 9
BITMAP
2480
3180
7240
ENDCHAR
STARTCHAR quotedblright
ENCODING 8221
SWIDTH 303 0
DWIDTH 5 0
BBX 5 3 0 9
BITMAP
3580
7240
6300
ENDCHAR
STARTCHAR quotedblbase
ENCODING 8222
SWIDTH 303 0
DWIDTH 5 0
BBX 5 3 0 -1
BITMAP
3580
7240
6300
ENDCHAR
STARTCHAR dagger
ENCODING 8224
SWIDTH 500 0
DWIDTH 9 0
BBX 7 12 1 0
BITMAP
0300
0300
0300
7FF4
0300
0300
0300
0300
0300
0300
0300
0300
ENDCHAR
STARTCHAR daggerdbl
ENCODING 8225
SWIDTH 500 0
DWIDTH 9 0
BBX 7 12 1 0
BITMAP
0300
0300
0300
7FF4
0300
0300
0300
7FF4
0300
0300
0300
0300
ENDCHAR
STARTCHAR bullet
ENCODING 8226
SWIDTH 352 0
DWIDTH 6 0
BBX 4 3 1 5
BITMAP
2D
BE
3D
ENDCHAR
STARTCHAR ellipsis
ENCODING 8230
SWIDTH 555 0
DWIDTH 10 0
BBX 8 2 1 0
BITMAP
D287
D287
ENDCHAR
STARTCHAR perthousand
ENCODING 8240
SWIDTH 1401 0
DWIDTH 25 0
BBX 24 12 1 0
BITMAP
2F9002800000
A07406000000
C0181C000000
C01834000000
A07490000000
2F9280000000
00061BE01BE0
001C74283428
0034A00C6009
0090A00C6009
028074283428
06001BE01BE0
ENDCHAR
STARTCHAR guilsinglleft
ENCODING 8249
SWIDTH 257 0
DWIDTH 5 0
BBX 4 7 0 3
BITMAP
06
0D
28
70
28
0D
06
ENDCHAR
STARTCHAR guilsinglright
ENCODING 8250
SWIDTH 257 0
DWIDTH 5 0
BBX 3 7 1 3
BITMAP
80
A0
24
1C
24
A0
80
ENDCHAR
STARTCHAR fraction
ENCODING 8260
SWIDTH 200 0
DWIDTH 4 0
BBX 11 12 -4 0
BITMAP
000018
000070
0000D0
000240
000A00
001800
007000
00D000
024000
0A0000
180000
700000
ENDCHAR
STARTCHAR Euro
ENCODING 8364
SWIDTH 833 0
DWIDTH 15 0
BBX 14 12 0 0
BITMAP
001BF900
00A40680
02800010
07000000
7FFFF800
09000000
09000000
7FFFE000
07000000
02800010
00A40680
001BF900
ENDCHAR
STARTCHAR trademark
ENCODING 8482
SWIDTH 773 0
DWIDTH 14 0
BBX 12 5 0 7
BITMAP
7F9C07
08190A
08161A
0815A2
081492
ENDCHAR
STARTCHAR partialdiff
ENCODING 8706
SWIDTH 790 0
DWIDTH 14 0
BBX 12 12 1 0
BITMAP
00BF90
024068
00000A
000007
06FE83
2D01B7
60000B
900006
D0000D
A00028
3901E0
0BFE40
ENDCHAR
STARTCHAR minus
ENCODING 8722
SWIDTH 634 0
DWIDTH 11 0
BBX 9 1 1 6
BITMAP
7FFFC0
ENDCHAR
STARTCHAR uni2215
ENCODING 8725
SWIDTH 200 0
DWIDTH 4 0
BBX 11 12 -4 0
BITMAP
000018
000070
0000D0
000240
000A00
001800
007000
00D000
024000
0A0000
180000
700000
ENDCHAR
STARTCHAR approxequal
ENCODING 8776
SWIDTH 634 0
DWIDTH 11 0
BBX 9 5 1 4
BITMAP
2F9080
516F40
000000
2F9080
516F40
ENDCHAR
STARTCHAR notequal
ENCODING 8800
SWIDTH 634 0
DWIDTH 11 0
BBX 9 10 1 1
BITMAP
001800
002400
003000
7FFFC0
009000
00C000
7FFFC0
024000
030000
060000
ENDCHAR
STARTCHAR lessequal
ENCODING 8804
SWIDTH 634 0
DWIDTH 11 0
BBX 9 10 1 1
BITMAP
000180
001E40
01E400
2E0000
B40000
1B9000
006900
000180
000000
7FFFC0
ENDCHAR
STARTCHAR greaterequal
ENCODING 8805
SWIDTH 634 0
DWIDTH 11 0
BBX 9 10 1 1
BITMAP
600000
1E0000
01E400
001E40
0002C0
006E40
1B9000
640000
000000
7FFFC0
ENDCHAR
STARTCHAR fi
ENCODING 64257
SWIDTH 1104 0
DWIDTH 20 0
BBX 16 12 2 0
BITMAP
06FFFE07
39000007
90000007
C0000007
C0000007
FFFFFD07
C0000007
C0000007
C0000007
C0000007
C0000007
C0000007
ENDCHAR
STARTCHAR fl
ENCODING 64258
SWIDTH 1527 0
DWIDTH 28 0
BBX 26 12 2 0
BITMAP
06FFFE07000000
39000007000000
90000007000000
C0000007000000
C0000007000000
FFFFFD07000000
C0000007000000
C0000007000000
C0000007000000
C0000003000000
C0000002900000
C00000006FFFD0
ENDCHAR
STARTCHAR .notdef
ENCODING -1
SWIDTH 1000 0
DWIDTH 18 0
BBX 1 1 0 0
BITMAP
00
ENDCHAR
ENDFONT
